<?xml version="1.0" encoding="UTF-8" standalone="no"?>
<svg width="172px" height="34px" viewBox="0 0 172 34" version="1.1" xmlns="http://www.w3.org/2000/svg" xmlns:xlink="http://www.w3.org/1999/xlink" xmlns:sketch="http://www.bohemiancoding.com/sketch/ns">
    <!-- Generator: Sketch 3.4 (15588) - http://www.bohemiancoding.com/sketch -->
    <title>Google Play Icon + Fill 1</title>
    <desc>Created with Sketch.</desc>
    <defs>
        <linearGradient x1="19.2147947%" y1="-35.1571758%" x2="69.3023416%" y2="93.5367562%" id="linearGradient-1">
            <stop stop-color="#19A3B4" offset="0%"></stop>
            <stop stop-color="#5BC3AF" offset="34.816763%"></stop>
            <stop stop-color="#C9F7A6" offset="92.2336229%"></stop>
            <stop stop-color="#D7FEA5" offset="100%"></stop>
        </linearGradient>
        <path id="path-2" d="M22.6154042,11.3719543 L2.501957,0.340039711 C1.93165022,0.0287915239 1.40564828,-0.0436136435 0.979567847,0.0889724421 L17.4543636,16.5211841 L22.6154042,11.3719543"></path>
        <linearGradient x1="-14.698314%" y1="-114.321644%" x2="74.8444046%" y2="114.156353%" id="linearGradient-4">
            <stop stop-color="#FC227C" offset="0%"></stop>
            <stop stop-color="#FEEB7B" offset="100%"></stop>
        </linearGradient>
        <linearGradient x1="28.1511582%" y1="-14.8137139%" x2="48.1878808%" y2="82.8944571%" id="linearGradient-5">
            <stop stop-color="#0E4DA0" offset="0%"></stop>
            <stop stop-color="#6BFED4" offset="100%"></stop>
        </linearGradient>
        <path id="path-6" d="M0.978625191,0.0889724421 C0.366841564,0.279858792 -0.0290738807,0.897653532 -0.0290738807,1.83233842 L-0.0253032574,31.2495235 C-0.0253032574,32.1738648 0.358357661,32.7822563 0.952230828,32.9853669 L17.4543636,16.5240051 L0.978625191,0.0889724421"></path>
        <linearGradient x1="132.244588%" y1="16.465744%" x2="5.95853392%" y2="126.310354%" id="linearGradient-8">
            <stop stop-color="#FC472E" offset="0%"></stop>
            <stop stop-color="#FC472E" offset="0.331892433%"></stop>
            <stop stop-color="#893CD8" offset="100%"></stop>
        </linearGradient>
        <path id="path-9" d="M0.952230828,32.9853669 C1.38113923,33.1301772 1.91751039,33.0624737 2.501957,32.7427626 L22.6389706,21.6958028 L17.4543636,16.5240051 L0.952230828,32.9853669"></path>
    </defs>
    <g id="Page-1" stroke="none" stroke-width="1" fill="none" fill-rule="evenodd" sketch:type="MSPage">
        <g id="Desktop-HD" sketch:type="MSArtboardGroup" transform="translate(-1113.000000, -823.000000)">
            <g id="Rectangle-1-+-Google-Play-Icon-+-Imported-Layers-+-Fill-1-+-Rectangle-1-+-Google-Play-Icon-+-Imported-Layers-+-Imported-Layers-+-App-Store" sketch:type="MSLayerGroup" transform="translate(858.000000, 810.000000)">
                <g id="Rectangle-1-+-Google-Play-Icon-+-Imported-Layers-+-Fill-1" transform="translate(242.878173, 0.000000)">
                    <g id="Rectangle-1-+-Google-Play-Icon-+-Imported-Layers">
                        <g>
                            <g id="Google-Play-Icon-+-Fill-1" transform="translate(12.000000, 12.000000)">
                                <g id="Google-Play-Icon" transform="translate(0.926396, 0.980000)">
                                    <mask id="mask-3" sketch:name="Fill 1" fill="white">
                                        <use xlink:href="#path-2"></use>
                                    </mask>
                                    <use id="Fill-1" fill="url(#linearGradient-1)" sketch:type="MSShapeGroup" xlink:href="#path-2"></use>
                                    <path d="M22.6417986,21.6958028 L29.5081036,17.9297937 C30.9004062,17.1634274 30.9004062,15.916554 29.5081036,15.1520682 L22.6163469,11.3719543 L17.4543636,16.5211841 L22.6417986,21.6958028" id="Fill-2" fill="url(#linearGradient-4)" sketch:type="MSShapeGroup"></path>
                                    <mask id="mask-7" sketch:name="Fill 3" fill="white">
                                        <use xlink:href="#path-6"></use>
                                    </mask>
                                    <use id="Fill-3" fill="url(#linearGradient-5)" sketch:type="MSShapeGroup" xlink:href="#path-6"></use>
                                    <mask id="mask-10" sketch:name="Fill 4" fill="white">
                                        <use xlink:href="#path-9"></use>
                                    </mask>
                                    <use id="Fill-4" fill="url(#linearGradient-8)" sketch:type="MSShapeGroup" xlink:href="#path-9"></use>
                                </g>
                                <path d="M121.861683,23.3160947 L120.513402,24.6086806 C120.20181,24.7826662 119.891889,24.9846592 119.582803,25.1280913 C118.646357,25.5600848 117.69404,25.6687197 116.847813,25.6687197 C115.947288,25.6687197 114.535518,25.60931 113.095346,24.5509683 C111.094643,23.1191939 110.220015,20.657934 110.220015,18.5132431 C110.220015,14.0727907 113.777841,11.895 116.679904,11.895 C117.69404,11.895 118.735742,12.1530079 119.582803,12.6970312 C120.991232,13.6433433 121.355451,14.8731245 121.55761,15.5317237 L114.930647,18.2518403 L112.760364,18.4232798 C113.462908,22.064247 115.887142,24.1817793 118.566162,24.1817793 C119.90442,24.1817793 120.89767,23.7379038 121.809055,23.2804489 C121.809055,23.2804489 121.992001,23.1836959 121.861683,23.3160947 L121.861683,23.3160947 Z M117.863619,16.0740496 C118.401595,15.8754514 118.681443,15.7040119 118.681443,15.3051181 C118.681443,14.1610565 117.407509,12.8396146 115.887142,12.8396146 C114.761067,12.8396146 112.646755,13.7307604 112.646755,16.8251582 C112.646755,17.3080744 112.703559,17.8223929 112.731962,18.3367113 L117.863619,16.0740496 Z M108.005458,23.0945813 C108.005458,24.2072406 108.200933,24.3803775 109.127355,24.4677946 C109.610197,24.5255069 110.091368,24.5509683 110.567527,24.6086806 L109.52499,25.2392723 L104.557064,25.2392723 C105.20865,24.3803775 105.320589,24.2946577 105.320589,23.722627 L105.320589,23.0835481 L105.30973,6.05502431 L103.116057,6.05502431 L105.227864,5.02129514 L109.259343,5.02129514 C108.38555,5.53561359 108.12408,5.8487877 108.012141,6.85111458 L108.005458,23.0945813 Z M100.300872,13.3004643 C100.948281,13.8410928 102.299068,14.9885491 102.299068,17.1646424 C102.299068,19.2855694 101.122037,20.2853502 99.934981,21.2316622 C99.5707611,21.604246 99.1447242,22.0082321 99.1447242,22.6328829 C99.1447242,23.2668695 99.5707611,23.6105972 99.8773407,23.8669077 L100.895653,24.6655441 C102.133666,25.7272808 103.262246,26.7007515 103.262246,28.6782465 C103.262246,31.3720531 100.696,34.0887748 95.8466968,34.0887748 C91.7617542,34.0887748 89.7869475,32.1121285 89.7869475,29.9928988 C89.7869475,28.9617158 90.2923443,27.5010853 91.9597361,26.5004559 C93.707323,25.4149554 96.0747519,25.2698259 97.3428384,25.1849549 C96.9468747,24.6655441 96.4949413,24.1215208 96.4949413,23.2337698 C96.4949413,22.7483075 96.6386244,22.4588973 96.7772952,22.1177158 C96.469045,22.1474206 96.1582886,22.1779742 95.8759347,22.1779742 C92.8861576,22.1779742 91.196211,19.9119177 91.196211,17.6789608 C91.196211,16.3617624 91.7876505,14.9002832 93.0022736,13.8410928 C94.6095189,12.4967356 96.5258499,12.2650377 98.0487232,12.2650377 L103.857863,12.2650377 L102.0518,13.3004643 L100.300872,13.3004643 Z M98.30351,26.0149936 C98.0721135,25.98444 97.9334426,25.98444 97.6544302,25.98444 C97.398808,25.98444 95.8759347,26.0404549 94.696397,26.4427436 C94.0723782,26.6744415 92.2688217,27.3593507 92.2688217,29.3937093 C92.2688217,31.4238244 94.2160612,32.8878497 97.2283932,32.8878497 C99.934981,32.8878497 101.371812,31.5698026 101.371812,29.7951493 C101.371812,28.3345188 100.442049,27.5638899 98.30351,26.0149936 L98.30351,26.0149936 Z M99.1138156,20.573063 C99.7654016,19.9119177 99.8222065,18.9987054 99.8222065,18.4801434 C99.8222065,16.4203234 98.613431,13.2121984 96.2702277,13.2121984 C95.5392819,13.2121984 94.7473544,13.5847822 94.2979272,14.1610565 C93.8209328,14.7576999 93.6780851,15.5317237 93.6780851,16.2760427 C93.6780851,18.194128 94.7790983,21.3750942 97.2008261,21.3750942 C97.9075462,21.3750942 98.6677298,21.0262743 99.1138156,20.573063 Z M82.8233315,25.60931 C78.3424251,25.60931 75.944923,22.064247 75.944923,18.8544246 C75.944923,15.1039737 78.9589257,11.895 83.246027,11.895 C87.3902807,11.895 89.9857648,15.1913909 89.9857648,18.6524315 C89.9857648,22.0328447 87.4203539,25.60931 82.8233315,25.60931 Z M86.3485786,23.2923309 C87.0302377,22.3757237 87.1956403,21.2316622 87.1956403,20.1164568 C87.1956403,17.5940898 86.0127612,12.7835997 82.516752,12.7835997 C81.586989,12.7835997 80.650543,13.1527887 79.9755668,13.755373 C78.8745536,14.7576999 78.6782425,16.017186 78.6782425,17.2529082 C78.6782425,20.0825084 80.0549266,24.7495665 83.471576,24.7495665 C84.5742599,24.7495665 85.6994988,24.2072406 86.3485786,23.2923309 Z M67.8209828,25.60931 C63.339241,25.60931 60.9459157,22.064247 60.9459157,18.8544246 C60.9459157,15.1039737 63.9607537,11.895 68.2461844,11.895 C72.387932,11.895 74.9809099,15.1913909 74.9809099,18.6524315 C74.9809099,22.0328447 72.4188405,25.60931 67.8209828,25.60931 Z M71.3470652,23.2923309 C72.0237121,22.3757237 72.1924562,21.2316622 72.1924562,20.1164568 C72.1924562,17.5940898 71.0062356,12.7835997 67.5135679,12.7835997 C66.5804634,12.7835997 65.6540418,13.1527887 64.9773949,13.755373 C63.874711,14.7576999 63.6792352,16.017186 63.6792352,17.2529082 C63.6792352,20.0825084 65.0617669,24.7495665 68.4725687,24.7495665 C69.5727465,24.7495665 70.6963146,24.2072406 71.3470652,23.2923309 Z M59.1540543,24.6154702 L55.3748558,25.4947341 C53.8436288,25.7400114 52.4686154,25.9555838 51.0125714,25.9555838 C43.7231625,25.9555838 40.9455685,20.5043175 40.9455685,16.2378507 C40.9455685,11.0276181 44.8809806,6.19675893 51.6207183,6.19675893 C53.0466891,6.19675893 54.418361,6.40978522 55.6680695,6.75605903 C57.6487237,7.3213001 58.5751452,8.01809127 59.1540543,8.42632093 L56.9587109,10.5447019 L56.0331247,10.755182 L56.6930643,9.68665575 C55.799222,8.79975347 54.1560559,7.16259127 51.0376324,7.16259127 C46.8683177,7.16259127 43.7231625,10.3825982 43.7231625,15.0836047 C43.7231625,20.1325823 47.3144035,24.8819653 53.0742562,24.8819653 C54.7667089,24.8819653 55.6379963,24.5365402 56.4290885,24.2140303 L56.4290885,19.8856076 L52.4385422,20.1037262 L54.5536904,18.9494802 L60.1539881,18.9494802 L59.4689875,19.6191126 C59.2843715,19.7786701 59.2593105,19.8329876 59.2075178,20.0468626 C59.1799507,20.2912912 59.1540543,21.0687098 59.1540543,21.3419945 L59.1540543,24.6154702 Z M129.987294,23.438309 L129.987294,30.7329742 L128.561324,30.7329742 L128.561324,12.1708309 L129.987294,12.1708309 L129.987294,14.2849683 C130.916222,12.9185446 132.613687,11.8355903 134.585152,11.8355903 C138.121259,11.8355903 140.502889,14.5607991 140.502889,18.8747937 C140.502889,23.159932 138.121259,25.9420045 134.585152,25.9420045 C132.723955,25.9420045 131.056564,24.9668363 129.987294,23.438309 Z M138.970827,18.8747937 C138.970827,15.6233844 137.3026,13.1434529 134.344567,13.1434529 C132.507595,13.1434529 130.750819,14.6100243 129.987294,15.8890308 L129.987294,21.8308517 C130.750819,23.1124043 132.507595,24.6324444 134.344567,24.6324444 C137.3026,24.6324444 138.970827,22.1312951 138.970827,18.8747937 Z M142.450129,7.04546925 L143.875264,7.04546925 L143.875264,25.6076126 L142.450129,25.6076126 L142.450129,7.04546925 Z M159.875876,29.5328978 C160.180785,29.6712376 160.701218,29.7561086 161.031188,29.7561086 C161.903311,29.7561086 162.510622,29.3937093 163.056117,28.1138542 L164.096148,25.7196424 L158.479143,12.1708309 L160.069681,12.1708309 L164.888076,23.9118894 L169.65969,12.1708309 L171.272783,12.1708309 L164.421941,28.5628219 C163.711044,30.2517555 162.592488,31.0639712 161.056249,31.0639712 C160.595127,31.0639712 159.98698,30.9807976 159.631114,30.8696166 L159.875876,29.5328978 Z M155.710738,25.5677232 C155.615506,25.1017812 155.543665,24.6910055 155.491037,24.3481265 C155.447598,24.0060962 155.422537,23.6564276 155.422537,23.300818 C154.933847,24.0298601 154.241328,24.636688 153.356675,25.1145119 C152.471186,25.5957307 151.629972,25.8316721 150.476331,25.8316721 C149.087116,25.8316721 148.008658,25.4845496 147.239285,24.78012 C146.472419,24.0765392 146.08648,23.1234375 146.08648,21.9174201 C146.08648,20.7131002 146.64534,19.7353859 147.759719,18.9876721 C148.874098,18.2365635 150.31427,17.863131 152.096942,17.863131 L155.422537,17.863131 L155.422537,16.1937178 C155.422537,15.232129 155.100085,14.4759281 154.456017,13.9276612 C153.809444,13.3785456 152.902236,13.1010174 151.726039,13.1010174 C150.650923,13.1010174 149.7788,13.3547817 149.114683,13.8487312 C148.456415,14.3528651 148.124774,14.9775159 148.124774,15.7303219 L146.665389,15.7303219 L146.635315,15.6581815 C146.582687,14.643124 147.039633,13.7528269 148.011164,12.9838953 C148.978519,12.2158125 150.24577,11.8296493 151.805399,11.8296493 C153.360017,11.8296493 154.618079,12.2098715 155.56622,12.9686186 C156.513525,13.7197272 156.988849,14.8052277 156.988849,16.2242713 L156.988849,22.8526989 C156.988849,23.3288254 157.011404,23.7888264 157.06988,24.2369454 C157.130026,24.6859132 157.226093,25.1340322 157.353904,25.5677232 L155.710738,25.5677232 Z M150.650923,24.5119276 C151.862204,24.5119276 152.732656,24.2369454 153.622322,23.6929221 C154.506139,23.1522937 155.107603,22.4470154 155.422537,21.5932128 L155.422537,19.0131334 L152.08107,19.0131334 C150.80463,19.0131334 149.747891,19.2999975 148.916702,19.878818 C148.083841,20.455941 147.661981,21.1544296 147.661981,21.9666453 C147.661981,22.7330308 147.929298,23.3457996 148.460591,23.8100441 C148.993555,24.279381 149.721995,24.5119276 150.650923,24.5119276 L150.650923,24.5119276 Z" id="Fill-1" fill="#FFFFFF" sketch:type="MSShapeGroup"></path>
                            </g>
                        </g>
                    </g>
                </g>
            </g>
        </g>
    </g>
</svg>