<?xml version="1.0" encoding="UTF-8" standalone="no"?>
<svg width="168px" height="35px" viewBox="0 0 168 35" version="1.1" xmlns="http://www.w3.org/2000/svg" xmlns:xlink="http://www.w3.org/1999/xlink" xmlns:sketch="http://www.bohemiancoding.com/sketch/ns">
    <!-- Generator: Sketch 3.4 (15588) - http://www.bohemiancoding.com/sketch -->
    <title>Imported Layers + App Store</title>
    <desc>Created with Sketch.</desc>
    <defs></defs>
    <g id="Page-1" stroke="none" stroke-width="1" fill="none" fill-rule="evenodd" sketch:type="MSPage">
        <g id="Desktop-HD" sketch:type="MSArtboardGroup" transform="translate(-874.000000, -821.000000)" fill="#FFFFFF">
            <g id="Rectangle-1-+-Google-Play-Icon-+-Imported-Layers-+-Fill-1-+-Rectangle-1-+-Google-Play-Icon-+-Imported-Layers-+-Imported-Layers-+-App-Store" sketch:type="MSLayerGroup" transform="translate(858.000000, 810.000000)">
                <g id="Rectangle-1-+-Google-Play-Icon-+-Imported-Layers-+-Imported-Layers-+-App-Store">
                    <g id="Imported-Layers-+-App-Store">
                        <g transform="translate(16.000000, 11.000000)">
                            <path d="M21.2382271,8.17359524 C25.0488615,8.17359524 27.4856046,11.8758733 27.4856046,11.8758733 C27.4856046,11.8758733 23.7684432,13.9013714 23.7684432,18.300271 C23.7684432,23.5212652 28.4380618,25.0399814 28.4380618,25.0399814 C28.4380618,25.0399814 24.7523266,33.8214852 20.6137311,33.8214852 C18.2865769,33.8214852 18.1310573,32.4771281 15.0383919,32.4771281 C12.3526561,32.4771281 11.4469355,33.8214852 9.40100595,33.8214852 C5.49609282,33.8214852 0.45177665,25.2615967 0.45177665,18.300271 C0.45177665,11.069259 5.55894532,8.17359524 8.76039391,8.17359524 C11.5718347,8.17359524 12.742664,9.83489476 15.0069656,9.83489476 C16.9126857,9.83489476 18.4122819,8.17359524 21.2382271,8.17359524 L21.2382271,8.17359524 Z M20.5831107,0.8 C21.1447542,4.34421429 17.9433056,8.72763333 14.117361,8.58505 C13.5549117,4.07534286 17.678197,1.03791048 20.5831107,0.8 L20.5831107,0.8 Z" id="Imported-Layers" sketch:type="MSShapeGroup"></path>
                            <text id="App-Store" sketch:type="MSTextLayer" font-family="Helvetica Neue" font-size="28.2030457" font-weight="normal">
                                <tspan x="41.5812183" y="28.98">App Store</tspan>
                            </text>
                        </g>
                    </g>
                </g>
            </g>
        </g>
    </g>
</svg>