<?xml version="1.0" encoding="UTF-8" standalone="no"?>
<svg width="132px" height="30px" viewBox="0 0 132 30" version="1.1" xmlns="http://www.w3.org/2000/svg" xmlns:xlink="http://www.w3.org/1999/xlink" xmlns:sketch="http://www.bohemiancoding.com/sketch/ns">
    <!-- Generator: Sketch 3.4.1 (15681) - http://www.bohemiancoding.com/sketch -->
    <title>google-play-logo</title>
    <desc>Created with Sketch.</desc>
    <defs></defs>
    <g id="Page-1" stroke="none" stroke-width="1" fill="none" fill-rule="evenodd" sketch:type="MSPage">
        <g id="google-play-logo" sketch:type="MSLayerGroup" transform="translate(-1.000000, 0.000000)" fill="#FFFFFF">
            <g id="Google-Play-Icon-+-Fill-1" sketch:type="MSShapeGroup">
                <g id="Page-1">
                    <g id="Desktop-HD">
                        <g id="Rectangle-1-+-Google-Play-Icon-+-Imported-Layers-+-Fill-1-+-Rectangle-1-+-Google-Play-Icon-+-Imported-Layers-+-Imported-Layers-+-App-Store">
                            <g id="Rectangle-1-+-Google-Play-Icon-+-Imported-Layers-+-Fill-1" transform="translate(0.878173, 0.000000)">
                                <g id="Rectangle-1-+-Google-Play-Icon-+-Imported-Layers">
                                    <g id="Google-Play-Icon-+-Fill-1">
                                        <path d="M81.861683,18.3160947 L80.513402,19.6086806 C80.20181,19.7826662 79.891889,19.9846592 79.582803,20.1280913 C78.646357,20.5600848 77.69404,20.6687197 76.847813,20.6687197 C75.947288,20.6687197 74.535518,20.60931 73.095346,19.5509683 C71.094643,18.1191939 70.220015,15.657934 70.220015,13.5132431 C70.220015,9.0727907 73.777841,6.895 76.679904,6.895 C77.69404,6.895 78.735742,7.1530079 79.582803,7.6970312 C80.991232,8.6433433 81.355451,9.8731245 81.55761,10.5317237 L74.930647,13.2518403 L72.760364,13.4232798 C73.462908,17.064247 75.887142,19.1817793 78.566162,19.1817793 C79.90442,19.1817793 80.89767,18.7379038 81.809055,18.2804489 C81.809055,18.2804489 81.992001,18.1836959 81.861683,18.3160947 L81.861683,18.3160947 L81.861683,18.3160947 Z M77.863619,11.0740496 C78.401595,10.8754514 78.681443,10.7040119 78.681443,10.3051181 C78.681443,9.1610565 77.407509,7.8396146 75.887142,7.8396146 C74.761067,7.8396146 72.646755,8.7307604 72.646755,11.8251582 C72.646755,12.3080744 72.703559,12.8223929 72.731962,13.3367113 L77.863619,11.0740496 L77.863619,11.0740496 Z M68.005458,18.0945813 C68.005458,19.2072406 68.200933,19.3803775 69.127355,19.4677946 C69.610197,19.5255069 70.091368,19.5509683 70.567527,19.6086806 L69.52499,20.2392723 L64.557064,20.2392723 C65.20865,19.3803775 65.320589,19.2946577 65.320589,18.722627 L65.320589,18.0835481 L65.30973,1.05502431 L63.116057,1.05502431 L65.227864,0.02129514 L69.259343,0.02129514 C68.38555,0.53561359 68.12408,0.8487877 68.012141,1.85111458 L68.005458,18.0945813 L68.005458,18.0945813 Z M60.300872,8.3004643 C60.948281,8.8410928 62.299068,9.9885491 62.299068,12.1646424 C62.299068,14.2855694 61.122037,15.2853502 59.934981,16.2316622 C59.5707611,16.604246 59.1447242,17.0082321 59.1447242,17.6328829 C59.1447242,18.2668695 59.5707611,18.6105972 59.8773407,18.8669077 L60.895653,19.6655441 C62.133666,20.7272808 63.262246,21.7007515 63.262246,23.6782465 C63.262246,26.3720531 60.696,29.0887748 55.8466968,29.0887748 C51.7617542,29.0887748 49.7869475,27.1121285 49.7869475,24.9928988 C49.7869475,23.9617158 50.2923443,22.5010853 51.9597361,21.5004559 C53.707323,20.4149554 56.0747519,20.2698259 57.3428384,20.1849549 C56.9468747,19.6655441 56.4949413,19.1215208 56.4949413,18.2337698 C56.4949413,17.7483075 56.6386244,17.4588973 56.7772952,17.1177158 C56.469045,17.1474206 56.1582886,17.1779742 55.8759347,17.1779742 C52.8861576,17.1779742 51.196211,14.9119177 51.196211,12.6789608 C51.196211,11.3617624 51.7876505,9.9002832 53.0022736,8.8410928 C54.6095189,7.4967356 56.5258499,7.2650377 58.0487232,7.2650377 L63.857863,7.2650377 L62.0518,8.3004643 L60.300872,8.3004643 L60.300872,8.3004643 Z M58.30351,21.0149936 C58.0721135,20.98444 57.9334426,20.98444 57.6544302,20.98444 C57.398808,20.98444 55.8759347,21.0404549 54.696397,21.4427436 C54.0723782,21.6744415 52.2688217,22.3593507 52.2688217,24.3937093 C52.2688217,26.4238244 54.2160612,27.8878497 57.2283932,27.8878497 C59.934981,27.8878497 61.371812,26.5698026 61.371812,24.7951493 C61.371812,23.3345188 60.442049,22.5638899 58.30351,21.0149936 L58.30351,21.0149936 L58.30351,21.0149936 Z M59.1138156,15.573063 C59.7654016,14.9119177 59.8222065,13.9987054 59.8222065,13.4801434 C59.8222065,11.4203234 58.613431,8.2121984 56.2702277,8.2121984 C55.5392819,8.2121984 54.7473544,8.5847822 54.2979272,9.1610565 C53.8209328,9.7576999 53.6780851,10.5317237 53.6780851,11.2760427 C53.6780851,13.194128 54.7790983,16.3750942 57.2008261,16.3750942 C57.9075462,16.3750942 58.6677298,16.0262743 59.1138156,15.573063 L59.1138156,15.573063 Z M42.8233315,20.60931 C38.3424251,20.60931 35.944923,17.064247 35.944923,13.8544246 C35.944923,10.1039737 38.9589257,6.895 43.246027,6.895 C47.3902807,6.895 49.9857648,10.1913909 49.9857648,13.6524315 C49.9857648,17.0328447 47.4203539,20.60931 42.8233315,20.60931 L42.8233315,20.60931 Z M46.3485786,18.2923309 C47.0302377,17.3757237 47.1956403,16.2316622 47.1956403,15.1164568 C47.1956403,12.5940898 46.0127612,7.7835997 42.516752,7.7835997 C41.586989,7.7835997 40.650543,8.1527887 39.9755668,8.755373 C38.8745536,9.7576999 38.6782425,11.017186 38.6782425,12.2529082 C38.6782425,15.0825084 40.0549266,19.7495665 43.471576,19.7495665 C44.5742599,19.7495665 45.6994988,19.2072406 46.3485786,18.2923309 L46.3485786,18.2923309 Z M27.8209828,20.60931 C23.339241,20.60931 20.9459157,17.064247 20.9459157,13.8544246 C20.9459157,10.1039737 23.9607537,6.895 28.2461844,6.895 C32.387932,6.895 34.9809099,10.1913909 34.9809099,13.6524315 C34.9809099,17.0328447 32.4188405,20.60931 27.8209828,20.60931 L27.8209828,20.60931 Z M31.3470652,18.2923309 C32.0237121,17.3757237 32.1924562,16.2316622 32.1924562,15.1164568 C32.1924562,12.5940898 31.0062356,7.7835997 27.5135679,7.7835997 C26.5804634,7.7835997 25.6540418,8.1527887 24.9773949,8.755373 C23.874711,9.7576999 23.6792352,11.017186 23.6792352,12.2529082 C23.6792352,15.0825084 25.0617669,19.7495665 28.4725687,19.7495665 C29.5727465,19.7495665 30.6963146,19.2072406 31.3470652,18.2923309 L31.3470652,18.2923309 Z M19.1540543,19.6154702 L15.3748558,20.4947341 C13.8436288,20.7400114 12.4686154,20.9555838 11.0125714,20.9555838 C3.7231625,20.9555838 0.9455685,15.5043175 0.9455685,11.2378507 C0.9455685,6.0276181 4.8809806,1.19675893 11.6207183,1.19675893 C13.0466891,1.19675893 14.418361,1.40978522 15.6680695,1.75605903 C17.6487237,2.3213001 18.5751452,3.01809127 19.1540543,3.42632093 L16.9587109,5.5447019 L16.0331247,5.755182 L16.6930643,4.68665575 C15.799222,3.79975347 14.1560559,2.16259127 11.0376324,2.16259127 C6.8683177,2.16259127 3.7231625,5.3825982 3.7231625,10.0836047 C3.7231625,15.1325823 7.3144035,19.8819653 13.0742562,19.8819653 C14.7667089,19.8819653 15.6379963,19.5365402 16.4290885,19.2140303 L16.4290885,14.8856076 L12.4385422,15.1037262 L14.5536904,13.9494802 L20.1539881,13.9494802 L19.4689875,14.6191126 C19.2843715,14.7786701 19.2593105,14.8329876 19.2075178,15.0468626 C19.1799507,15.2912912 19.1540543,16.0687098 19.1540543,16.3419945 L19.1540543,19.6154702 L19.1540543,19.6154702 Z M89.987294,18.438309 L89.987294,25.7329742 L88.561324,25.7329742 L88.561324,7.1708309 L89.987294,7.1708309 L89.987294,9.2849683 C90.916222,7.9185446 92.613687,6.8355903 94.585152,6.8355903 C98.121259,6.8355903 100.502889,9.5607991 100.502889,13.8747937 C100.502889,18.159932 98.121259,20.9420045 94.585152,20.9420045 C92.723955,20.9420045 91.056564,19.9668363 89.987294,18.438309 L89.987294,18.438309 Z M98.970827,13.8747937 C98.970827,10.6233844 97.3026,8.1434529 94.344567,8.1434529 C92.507595,8.1434529 90.750819,9.6100243 89.987294,10.8890308 L89.987294,16.8308517 C90.750819,18.1124043 92.507595,19.6324444 94.344567,19.6324444 C97.3026,19.6324444 98.970827,17.1312951 98.970827,13.8747937 L98.970827,13.8747937 Z M102.450129,2.04546925 L103.875264,2.04546925 L103.875264,20.6076126 L102.450129,20.6076126 L102.450129,2.04546925 L102.450129,2.04546925 Z M119.875876,24.5328978 C120.180785,24.6712376 120.701218,24.7561086 121.031188,24.7561086 C121.903311,24.7561086 122.510622,24.3937093 123.056117,23.1138542 L124.096148,20.7196424 L118.479143,7.1708309 L120.069681,7.1708309 L124.888076,18.9118894 L129.65969,7.1708309 L131.272783,7.1708309 L124.421941,23.5628219 C123.711044,25.2517555 122.592488,26.0639712 121.056249,26.0639712 C120.595127,26.0639712 119.98698,25.9807976 119.631114,25.8696166 L119.875876,24.5328978 L119.875876,24.5328978 Z M115.710738,20.5677232 C115.615506,20.1017812 115.543665,19.6910055 115.491037,19.3481265 C115.447598,19.0060962 115.422537,18.6564276 115.422537,18.300818 C114.933847,19.0298601 114.241328,19.636688 113.356675,20.1145119 C112.471186,20.5957307 111.629972,20.8316721 110.476331,20.8316721 C109.087116,20.8316721 108.008658,20.4845496 107.239285,19.78012 C106.472419,19.0765392 106.08648,18.1234375 106.08648,16.9174201 C106.08648,15.7131002 106.64534,14.7353859 107.759719,13.9876721 C108.874098,13.2365635 110.31427,12.863131 112.096942,12.863131 L115.422537,12.863131 L115.422537,11.1937178 C115.422537,10.232129 115.100085,9.4759281 114.456017,8.9276612 C113.809444,8.3785456 112.902236,8.1010174 111.726039,8.1010174 C110.650923,8.1010174 109.7788,8.3547817 109.114683,8.8487312 C108.456415,9.3528651 108.124774,9.9775159 108.124774,10.7303219 L106.665389,10.7303219 L106.635315,10.6581815 C106.582687,9.643124 107.039633,8.7528269 108.011164,7.9838953 C108.978519,7.2158125 110.24577,6.8296493 111.805399,6.8296493 C113.360017,6.8296493 114.618079,7.2098715 115.56622,7.9686186 C116.513525,8.7197272 116.988849,9.8052277 116.988849,11.2242713 L116.988849,17.8526989 C116.988849,18.3288254 117.011404,18.7888264 117.06988,19.2369454 C117.130026,19.6859132 117.226093,20.1340322 117.353904,20.5677232 L115.710738,20.5677232 L115.710738,20.5677232 Z M110.650923,19.5119276 C111.862204,19.5119276 112.732656,19.2369454 113.622322,18.6929221 C114.506139,18.1522937 115.107603,17.4470154 115.422537,16.5932128 L115.422537,14.0131334 L112.08107,14.0131334 C110.80463,14.0131334 109.747891,14.2999975 108.916702,14.878818 C108.083841,15.455941 107.661981,16.1544296 107.661981,16.9666453 C107.661981,17.7330308 107.929298,18.3457996 108.460591,18.8100441 C108.993555,19.279381 109.721995,19.5119276 110.650923,19.5119276 L110.650923,19.5119276 L110.650923,19.5119276 Z" id="Fill-1"></path>
                                    </g>
                                </g>
                            </g>
                        </g>
                    </g>
                </g>
            </g>
        </g>
    </g>
</svg>