<?xml version="1.0" standalone="no"?>
<!DOCTYPE svg PUBLIC "-//W3C//DTD SVG 1.1//EN" "http://www.w3.org/Graphics/SVG/1.1/DTD/svg11.dtd" >
<svg xmlns="http://www.w3.org/2000/svg">
<metadata></metadata>
<defs>
<font id="mikadobold" horiz-adv-x="1454" >
<font-face units-per-em="2048" ascent="1536" descent="-512" />
<missing-glyph horiz-adv-x="399" />
<glyph unicode="&#xfb01;" horiz-adv-x="1304" d="M25 981q4 5 51.5 11.5t93 10.5t45.5 5l-1 8q0 9 -1 23.5t-2 32t-1.5 41.5t-0.5 46q0 69 26 136t73.5 122.5t123 90t166.5 34.5q77 0 145 -14t115 -36t74 -39t47 -34q-6 -39 -50.5 -131t-56.5 -92q-8 -1 -24 6.5t-35 17.5t-52.5 18.5t-70.5 8.5q-158 0 -158 -155 q0 -15 1.5 -47.5t1.5 -34.5q33 -2 194 -2t306.5 -1t162.5 -6q7 -3 -1.5 -494.5t-14.5 -502.5q-7 -9 -154 -8.5t-151 6.5q-2 2 -5.5 128t-6.5 308.5t-3 315.5q-59 -2 -137.5 -3t-131.5 -0.5t-54 1.5t4.5 -185t9.5 -374.5t0 -192.5q-9 -9 -165.5 -15.5t-168.5 7.5 q-3 4 -4.5 38.5t-2.5 87t-1.5 119.5t-0.5 134v134.5t0.5 117.5t0.5 85.5v36.5q-6 1 -85.5 1t-84.5 2q-6 3 -14.5 113.5t-1.5 119.5z" />
<glyph unicode="&#xfb02;" horiz-adv-x="1318" d="M25 981q4 5 51.5 11.5t93 10.5t45.5 5l-1 8q0 9 -1 23.5t-2 32t-1.5 41.5t-0.5 46q0 70 30 137.5t84.5 122.5t140 89t187.5 34q182 0 301 -76l35 54q192 8 227 -4q6 -3 -2.5 -752t-13.5 -760q-7 -9 -154 -8.5t-151 6.5q-3 3 -8.5 461t-5.5 708q-73 78 -174 78 q-76 0 -124.5 -40.5t-48.5 -116.5q0 -15 1.5 -47.5t1.5 -34.5h192q17 -152 -8 -258q-176 -4 -180 0q-1 1 4.5 -185t9.5 -374.5t0 -192.5q-9 -9 -165.5 -15.5t-168.5 7.5q-3 4 -4.5 38.5t-2.5 87t-1.5 119.5t-0.5 134v134.5t0.5 117.5t0.5 85.5v36.5q-6 1 -85.5 1t-84.5 2 q-6 3 -14.5 113.5t-1.5 119.5z" />
<glyph horiz-adv-x="0" />
<glyph horiz-adv-x="0" />
<glyph horiz-adv-x="682" />
<glyph unicode="&#xd;" horiz-adv-x="0" />
<glyph unicode=" "  horiz-adv-x="399" />
<glyph unicode="&#x09;" horiz-adv-x="399" />
<glyph unicode="&#xa0;" horiz-adv-x="399" />
<glyph unicode="!" horiz-adv-x="610" d="M92 221q0 84 62 139.5t161 55.5q96 -2 153.5 -54.5t57.5 -150.5q0 -108 -48 -165.5t-169 -57.5q-96 0 -156.5 63t-60.5 170zM96 1430q30 14 201.5 21.5t206.5 -5.5q-1 -166 -32.5 -380.5t-61.5 -347t-39 -147.5q-10 -13 -67.5 -10.5t-63.5 10.5q-6 6 -41 152t-70 359 t-33 348z" />
<glyph unicode="&#x22;" horiz-adv-x="833" d="M78 1479q3 3 130 8.5t128 -2.5q0 -29 -16.5 -313.5t-22.5 -284.5q-4 0 -49 -2t-86 -3.5t-41 -0.5l-5 61q-5 62 -12.5 148.5t-14 173.5t-10 149.5t-1.5 65.5zM496 1479q3 3 131 8.5t129 -2.5q0 -33 -16.5 -315.5t-24.5 -282.5q-4 0 -49 -2t-86 -3.5t-41 -0.5l-5 61 q-5 62 -12.5 148.5t-14 173.5t-10 149.5t-1.5 65.5z" />
<glyph unicode="#" horiz-adv-x="1259" d="M61 360q-6 11 2 80t15 70q4 2 52.5 5t94 5.5t45.5 3.5q0 3 31.5 144t34.5 141l-6 -1h-19t-27.5 -0.5t-32.5 -1t-34.5 -1t-33.5 -0.5t-29 0.5t-21 1.5t-10 2q-7 7 4.5 82.5t17.5 75.5q12 0 116.5 6.5t107.5 9.5t25.5 115t43.5 223l21 111q5 5 56.5 9.5t94 4.5t49.5 -4 q0 -6 -53 -230t-53 -227t138 0.5t145 5.5q6 1 47 215.5t41 227.5q0 8 182 8q3 0 -23 -112.5t-51 -224.5t-20 -110q9 2 98.5 1.5t89.5 -5.5q0 -15 -7 -98.5t-11 -83.5l-209 4l-66 -281q205 0 205 -10q0 -21 -2.5 -93.5t-5.5 -72.5q-213 0 -217 -4q-3 -4 -25 -95.5t-42 -180.5 l-21 -90q-168 2 -172 6q-4 3 28 167.5t37 184.5q0 2 -15 3t-39.5 1.5t-54 0t-60 -1.5t-55 -1.5t-40.5 -1.5h-16q-1 0 -19 -86.5t-36 -173.5t-19 -88l-166 12l70 346q-173 -8 -181 6zM455 535q7 1 133.5 1.5t134.5 2.5q5 1 18.5 70t24.5 137l10 69h-266q-4 -18 -10.5 -47 t-20 -90.5t-20.5 -102.5t-4 -40z" />
<glyph unicode="$" horiz-adv-x="1206" d="M68 135q-6 31 45.5 150t68.5 112q30 -20 74.5 -43.5t127.5 -53.5t159 -40q0 100 -4 334q-14 2 -37 10q-109 30 -182 62t-130 80t-83.5 115.5t-26.5 158.5q0 81 30 153.5t86 130.5t143 97.5t196 50.5q0 148 2 150q5 10 38 13.5t63 2t30 -3.5v-160q137 -6 253.5 -39 t178.5 -76q12 -9 -11.5 -70.5t-56.5 -119t-43 -57.5q-5 1 -57.5 23.5t-124 44.5t-139.5 28v-328q93 -25 158.5 -47.5t130.5 -58t103.5 -78t62.5 -104t24 -138.5t-29 -148.5t-85.5 -132.5t-150.5 -103t-214 -54v-164l-72 -13q-42 -5 -45 5q-4 8 -4 166q-148 4 -281 50 t-198 95zM391 1040q0 -44 29 -76t117 -63q0 193 -2 281q-75 -13 -109.5 -50.5t-34.5 -91.5zM668 258q157 16 157 145q0 43 -36.5 79.5t-120.5 68.5v-293z" />
<glyph unicode="%" horiz-adv-x="1716" d="M53 1065q0 91 27.5 160.5t76 111.5t110.5 63t134 21q149 0 240.5 -94.5t91.5 -265.5q0 -71 -20 -134.5t-58.5 -115.5t-103.5 -82.5t-148 -30.5q-161 0 -255.5 91t-94.5 276zM264 1055q0 -70 37 -105t88 -35q58 0 95.5 34.5t37.5 105.5q0 69 -31 116.5t-90 47.5 q-72 0 -104.5 -45t-32.5 -119zM354 -6q-3 5 373.5 734t388.5 736q8 3 56 -0.5t94 -13t45 -20.5q-2 -27 -364 -747.5t-388 -727.5q-33 -8 -114.5 9.5t-90.5 29.5zM969 356q0 183 100 274t256 91q152 0 245 -97.5t93 -271.5q0 -73 -20 -138.5t-60 -118.5t-106 -84t-150 -31 q-166 0 -262 93t-96 283zM1174 346q0 -76 40 -113.5t97 -37.5q64 0 105.5 37t41.5 114q0 73 -34 123.5t-99 50.5q-78 0 -114.5 -48.5t-36.5 -125.5z" />
<glyph unicode="&#x26;" horiz-adv-x="1417" d="M96 356q0 66 19 125.5t46.5 101t68 80.5t72 62t70.5 50q2 1 3.5 2t3.5 2.5t4 2.5q-73 69 -123.5 154t-50.5 166q0 150 115.5 255t312.5 105q174 0 294 -100t120 -260q0 -62 -27 -120.5t-65.5 -98t-77.5 -70t-66 -45.5l-27 -14l191 -193q125 117 188 195q29 3 120 -66.5 t106 -99.5q-41 -53 -93.5 -116.5t-85.5 -100.5l-32 -37l188 -178q-32 -65 -110.5 -137t-110.5 -74l-188 196q-1 -1 -14 -13t-22.5 -20t-29 -23t-38.5 -26t-45 -25t-55.5 -24t-63 -19t-73.5 -13.5t-83 -4.5q-204 0 -322.5 108t-118.5 273zM428 399q0 -54 43 -92.5t100 -38.5 q53 0 102.5 23.5t72.5 46.5l24 24l-207 242q-2 -2 -20.5 -16.5t-35.5 -31.5t-36 -40.5t-31 -54t-12 -62.5zM492 1090q0 -38 35.5 -88t76.5 -84q15 6 36.5 19t48.5 33t45 49t18 58q0 57 -34.5 90t-99.5 33q-53 0 -89.5 -34.5t-36.5 -75.5z" />
<glyph unicode="'" horiz-adv-x="415" d="M78 1479q3 3 131 8.5t129 -2.5q0 -28 -17.5 -313t-23.5 -285q-4 0 -49 -2t-86 -3.5t-41 -0.5l-5 61q-5 62 -12.5 148.5t-14 173.5t-10 149.5t-1.5 65.5z" />
<glyph unicode="(" horiz-adv-x="772" d="M59 631q0 162 35.5 297t91.5 222t124.5 153t136.5 101.5t125 56t92 26.5t36 4q12 -19 21.5 -101t9.5 -106q0 -3 -23.5 -9t-60.5 -20t-82 -38.5t-90 -72.5t-82 -113.5t-60.5 -170.5t-23.5 -235q0 -100 15 -187.5t41 -150t59.5 -114.5t70.5 -86t73.5 -60t70 -40.5t59.5 -23 t41 -12.5l15 -4q-3 -33 -19.5 -85t-33.5 -89t-21 -37q-6 0 -36 7t-88.5 31t-121.5 62t-131.5 108t-121.5 159.5t-87.5 227t-34.5 300.5z" />
<glyph unicode=")" horiz-adv-x="770" d="M20 -53q0 3 24 9t63 20t85.5 38.5t93.5 72.5t86 113.5t63 170.5t24 235q0 128 -23.5 233.5t-61 173.5t-83 119.5t-91 79t-83 44t-61.5 22.5l-23 6q4 33 16 84.5t23.5 89t15.5 37.5q7 0 37 -7t88.5 -31t121.5 -62t131 -108t121 -159.5t87.5 -227t34.5 -300.5 q0 -162 -35.5 -297t-91.5 -222t-124.5 -153t-136.5 -101.5t-125 -56t-92 -26.5t-36 -4q-11 19 -29.5 106t-18.5 101z" />
<glyph unicode="*" horiz-adv-x="854" d="M70 1100q0 6 102 68t102 65t-100 71t-100 74t45 58t53 55q5 1 94 -67t90 -68q3 -1 10 50.5t13 103.5l6 51q132 0 135 -7q2 -3 -2 -62t-7.5 -116t-0.5 -57q1 0 54 25t105.5 48.5t55.5 20.5q4 -4 20 -46t30 -82t13 -40t-57 -14.5t-111.5 -29t-54.5 -15.5l191 -113 q0 -3 -49 -71.5t-56 -71.5q-4 -3 -43 32.5t-78.5 73t-40.5 37.5q-2 2 2 -46t8.5 -101t4.5 -58q0 -9 -74 -16.5t-84 -3.5q-4 1 -3 40t4 82t6 82t3 40q0 2 -48.5 -31.5t-98.5 -68t-53 -34.5t-44.5 68t-41.5 74z" />
<glyph unicode="+" horiz-adv-x="1099" d="M55 686l400 6v402q84 15 190 -2v-383h395q2 -166 -8 -174q-6 -6 -186 -17.5t-184 -13.5q-6 -3 -9 -207.5t-4 -206.5q-7 -7 -92 -11t-90 11q-2 9 -6.5 115t-8 206.5t-6.5 102.5q-1 1 -182.5 -4.5t-187.5 0.5q-5 4 -11 48t-9 86t-1 42z" />
<glyph unicode="," horiz-adv-x="571" d="M66 184q0 107 62.5 165t178.5 52q82 -5 138.5 -55.5t56.5 -157.5q0 -115 -71 -283t-150 -304q-3 -4 -42 5.5t-84 30t-59 41.5q-2 3 24 56t66.5 133.5t55.5 112.5q-72 8 -124 63.5t-52 140.5z" />
<glyph unicode="-" horiz-adv-x="815" d="M98 639.5q1 48.5 4 58.5q8 4 305 13.5t302 1.5q6 -29 5 -84t-6 -109t-8 -55l-41 -1q-41 -1 -100.5 -2.5t-131.5 -3.5t-135 -2.5t-109.5 -0.5t-55.5 2q-14 11 -22 72.5t-7 110z" />
<glyph unicode="." horiz-adv-x="571" d="M66 188q0 109 63.5 169t181.5 53q83 -3 139 -54.5t56 -160.5q0 -107 -64.5 -166t-183.5 -56q-75 3 -133.5 63.5t-58.5 151.5z" />
<glyph unicode="/" horiz-adv-x="978" d="M39 -84q0 4 345.5 831t348.5 830q207 -35 209 -45q0 -16 -342.5 -853t-361.5 -833q-201 42 -199 70z" />
<glyph unicode="0" horiz-adv-x="1251" d="M78 702q0 380 142 565t398 185q125 0 224.5 -43t175.5 -131.5t117 -236t41 -345.5q0 -357 -139 -544t-406 -187q-280 0 -416.5 179.5t-136.5 557.5zM410 692q0 -214 48 -315t158 -101q108 0 156.5 98t48.5 304q0 225 -47 337.5t-156 112.5q-108 0 -158 -110t-50 -326z " />
<glyph unicode="1" horiz-adv-x="847" d="M10 1196q25 28 245 134.5t265 119.5q44 -5 114 -21t85 -32q0 -1307 -10 -1389q-15 -6 -174 -10.5t-173 8.5q-3 108 -1.5 231t7.5 419.5t7 402.5q-3 -2 -9 -5l-24 -12t-35.5 -18t-41.5 -21t-45 -22t-43.5 -20.5t-39.5 -17.5t-30 -11.5t-17 -3.5q-11 1 -48 131t-32 137z " />
<glyph unicode="2" horiz-adv-x="1064" d="M59 260q65 74 158.5 170.5t155.5 160.5t122.5 135.5t90.5 132t30 112.5q0 68 -38 111.5t-119 43.5q-19 0 -37 -2.5t-32.5 -6.5t-29.5 -11t-25.5 -12.5t-23 -15t-19.5 -15t-16.5 -15.5t-13.5 -14.5t-11.5 -13.5t-8.5 -10q-32 21 -108 114t-73 115q1 11 18.5 34.5t56 56 t90 60.5t130.5 48t168 20q207 0 334 -112t127 -312q0 -51 -12.5 -102.5t-30.5 -96.5t-53.5 -99.5t-67 -96t-86 -102.5t-95 -103t-108.5 -112l5 -9l428 11q11 -9 12.5 -90t-4.5 -157t-15 -75q-33 -5 -441 -6.5t-419 4.5q-8 5 -26.5 117.5t-12.5 142.5z" />
<glyph unicode="3" horiz-adv-x="1091" d="M39 145q-3 23 63 120.5t103 113.5q42 -38 110.5 -67t155.5 -29q94 0 144.5 45t50.5 110q0 72 -55 113t-156 41q-17 0 -90.5 -1t-90.5 -1q-19 24 -19.5 146t19.5 136q20 0 96 -2t105 -2q64 0 116 32.5t52 105.5q0 70 -50 108.5t-126 38.5q-65 0 -122 -27t-91 -63 q-29 2 -191 209q160 186 453 186q206 0 336.5 -107.5t130.5 -289.5q0 -66 -19 -124t-49 -97.5t-57.5 -65t-54.5 -39.5v-12q21 -4 47 -16.5t57 -38.5t56 -60t42 -86.5t17 -113.5q0 -104 -41 -188t-112 -136.5t-161.5 -80.5t-193.5 -28q-168 0 -293.5 53.5t-181.5 116.5z" />
<glyph unicode="4" horiz-adv-x="1206" d="M25 535q46 105 276.5 462.5t314.5 456.5q85 -2 200.5 -14t164.5 -31l-2 -862q143 -2 180 -6q4 -10 4 -77t-2 -128l-2 -62q0 -4 -190 -4q-1 -3 -0.5 -28t1 -66t1.5 -79t1.5 -67t0.5 -30q-67 -13 -160.5 -11t-163.5 21l2 256q-56 -3 -284.5 -4.5t-311.5 2.5 q-10 46 -21.5 139t-8.5 132zM354 541l301 2l17 487l-10 2q-42 -58 -162 -246.5t-146 -244.5z" />
<glyph unicode="5" horiz-adv-x="1107" d="M31 160q6 37 65.5 148.5t71.5 111.5q4 0 33 -21t68 -46.5t101 -46.5t124 -21q87 0 138.5 47.5t51.5 142.5q0 76 -43 123t-127 51q-22 0 -45 -3t-39 -7t-37.5 -12.5t-30.5 -12.5t-28 -13.5l-21 -10.5l-174 102q0 140 19.5 402.5t42.5 337.5q20 6 372 13t410 -3 q4 -289 -6 -293l-520 -14l-13 -250q15 10 72 23.5t121 13.5q186 0 299 -116.5t113 -324.5q0 -165 -71 -281t-190 -170.5t-276 -54.5q-166 0 -308 67.5t-173 117.5z" />
<glyph unicode="6" horiz-adv-x="1155" d="M70 586q0 109 23.5 211.5t62.5 184t90 154.5t105.5 127t111 96.5t103.5 67.5t85 37q28 0 128.5 -84t113.5 -127q-153 -55 -274 -166.5t-144 -226.5l6 -8q96 74 217 74q79 0 151 -26.5t133.5 -79t98.5 -143t37 -206.5q0 -123 -41 -218.5t-113 -155t-166.5 -90 t-205.5 -30.5q-76 0 -149 21.5t-141 69.5t-119 117.5t-82 172.5t-31 228zM418 475q0 -94 47.5 -154.5t140.5 -60.5q96 0 148.5 57t52.5 146q0 91 -48.5 153t-142.5 62q-98 0 -148 -60t-50 -143z" />
<glyph unicode="7" horiz-adv-x="987" d="M45 1275q-5 134 4 148q59 7 279 10t411.5 2.5t194.5 -1.5q4 -1 12 -69t14 -136l7 -68q-480 -1186 -482 -1186q-13 0 -82 7.5t-163 27t-123 43.5l483 1061l-537 -6q-13 33 -18 167z" />
<glyph unicode="8" horiz-adv-x="1210" d="M70 403q0 122 71.5 213.5t167.5 133.5q-82 39 -141 120.5t-59 184.5q0 100 38 178t104.5 126t153.5 72.5t189 24.5q145 0 254.5 -43t175.5 -136t66 -226q0 -101 -51 -180t-126 -115q93 -44 161.5 -138.5t68.5 -220.5q0 -135 -71.5 -233t-189 -145.5t-264.5 -47.5 q-123 0 -222 25.5t-172.5 76.5t-113.5 135t-40 195zM414 432q0 -85 47.5 -132.5t144.5 -47.5q99 0 150 46t51 122q0 83 -48.5 134.5t-146.5 51.5q-101 0 -149.5 -49t-48.5 -125zM424 1036q0 -66 43 -105.5t129 -39.5q172 0 172 137q0 71 -41.5 114.5t-124.5 43.5 q-89 0 -133.5 -42.5t-44.5 -107.5z" />
<glyph unicode="9" horiz-adv-x="1153" d="M37 973q0 122 40.5 217t113 154t166.5 89.5t206 30.5q95 0 184.5 -35.5t166 -106t123 -191.5t46.5 -275q0 -150 -44.5 -288t-111 -235t-147.5 -175t-151 -121t-125 -60q-29 0 -129 84t-113 127q150 55 271 167.5t145 226.5l-6 8q-96 -74 -232 -74q-73 0 -142 26.5 t-128.5 79.5t-96 144t-36.5 207zM348 981q0 -92 48 -154.5t141 -62.5q98 0 148 60t50 143q0 94 -47 154.5t-139 60.5q-96 0 -148.5 -57t-52.5 -144z" />
<glyph unicode=":" horiz-adv-x="595" d="M84 793q0 105 61 162.5t174 50.5q79 -3 133 -52.5t54 -154.5q0 -102 -62 -158t-176 -53q-71 2 -127.5 60t-56.5 145zM90 176q0 104 61 160.5t173 50.5q36 -2 67 -13t58.5 -34t43 -63.5t15.5 -94.5q0 -101 -61.5 -156.5t-174.5 -52.5q-71 3 -126.5 60t-55.5 143z" />
<glyph unicode=";" horiz-adv-x="604" d="M86 793q0 105 61.5 162.5t174.5 50.5q79 -3 132.5 -52.5t53.5 -154.5q0 -102 -62 -158t-176 -53q-71 2 -127.5 60t-56.5 145zM98 158q0 102 60.5 157.5t169.5 49.5q78 -5 132 -53.5t54 -149.5q0 -109 -67.5 -269.5t-143.5 -291.5q-3 -4 -40.5 5t-80 28.5t-55.5 39.5 q-2 3 23 53.5t63 126.5t53 107q-68 8 -118 62t-50 135z" />
<glyph unicode="&#x3c;" horiz-adv-x="983" d="M55 692q0 8 392 167.5t401 152.5q9 -8 36 -81.5t23 -80.5q-4 -6 -280 -127.5t-277 -122.5q-2 -2 129 -67.5t264.5 -130t137.5 -64.5q5 0 -8.5 -42t-30.5 -85.5t-21 -48.5q-3 -4 -186.5 85.5t-369.5 182t-191 92.5q-9 0 -14 69.5t-5 100.5z" />
<glyph unicode="=" horiz-adv-x="1056" d="M107 842q0 40 2 37q815 4 835 -31q11 -20 6.5 -54t-13 -66.5t-11.5 -33.5q-2 -1 -200.5 3.5t-401 9t-205.5 4.5q-12 2 -12 131zM136.5 375.5q-11.5 72.5 0.5 83.5q4 4 393.5 16.5t389.5 5.5q0 -8 -10 -106.5t-11 -98.5q-66 0 -401.5 6.5t-341.5 12.5q-8 8 -19.5 80.5z " />
<glyph unicode="&#x3e;" horiz-adv-x="999" d="M78 846q-4 9 23 80.5t36 79.5q9 7 404 -150t395 -166q0 -2 1.5 -21.5t2.5 -43t1.5 -48t-1.5 -41t-6 -16.5q-6 0 -199.5 -109t-384.5 -215t-194 -102q-4 5 -19.5 48t-28 84.5t-8.5 41.5t152 77.5t294 156t144 80.5q-1 1 -304 129.5t-308 134.5z" />
<glyph unicode="?" horiz-adv-x="944" d="M57 1360q41 45 140.5 76.5t240.5 31.5q124 0 224 -44t162.5 -135t62.5 -216q0 -175 -105 -277t-268 -124l-10 -119q-117 -18 -240 -4q-9 9 -14 92t-6 161v79q144 0 227.5 39t83.5 118q0 50 -42.5 91.5t-127.5 41.5q-57 0 -113.5 -14.5t-83.5 -29.5l-28 -15 q-12 22 -30.5 56.5t-47.5 102t-25 89.5zM158 221q0 84 62 139.5t161 55.5q95 -2 152 -54.5t57 -150.5q0 -108 -47.5 -165.5t-169.5 -57.5q-95 0 -155 63t-60 170z" />
<glyph unicode="@" horiz-adv-x="2072" d="M61 436q0 108 21 216t65.5 213t108.5 199t155 174.5t199.5 138.5t247.5 91t295 33q179 0 333.5 -55t266.5 -154t176 -246t64 -323q0 -145 -32.5 -268t-86.5 -207t-124 -143t-145 -86t-151 -27q-103 0 -173.5 56t-92.5 138h-14q-109 -141 -267 -141q-152 0 -238.5 110 t-86.5 283q0 124 39 224.5t100.5 160t131 90.5t136.5 31q149 0 215 -139q7 48 25 121q58 0 133 -15.5t92 -38.5l-59 -358q-17 -130 -17 -174q0 -117 86 -117q53 0 102.5 31.5t91 91.5t66.5 158.5t25 220.5q0 56 -12.5 113t-39.5 119t-75 115.5t-113 96.5t-161 68t-211 25 q-124 0 -233 -28.5t-191 -77t-149.5 -114.5t-113 -139.5t-76.5 -154t-45 -156t-14 -146.5q0 -163 48.5 -296t133.5 -222t202.5 -137.5t254.5 -48.5q96 0 199.5 24.5t173.5 61.5q25 -14 51.5 -75t26.5 -93q0 -26 -60.5 -59.5t-181 -60.5t-258.5 -27q-175 0 -331.5 72 t-269 195.5t-178 294.5t-65.5 361zM836 451q0 -87 37 -131t94 -44q70 0 122 66.5t52 181.5q0 83 -34.5 137t-88.5 54q-62 0 -104.5 -40t-60 -97.5t-17.5 -126.5z" />
<glyph unicode="A" d="M29 20q33 124 237 763t217 647q15 9 223 15q96 3 156 3q70 0 90 -4q4 -1 113 -306.5t227.5 -660.5t137.5 -459q-19 -12 -112 -22q-94 -8 -178 -12q-54 -2 -75 -3q-12 0 -14 1q-33 77 -109 307q-22 -1 -110.5 -1t-198.5 0.5t-127 0.5q-6 -20 -31 -103.5t-42.5 -137.5 t-22.5 -62q-3 -2 -24 -2q-42 0 -162 10q-178 14 -195 26zM561 568q140 4 340 5q-67 186 -164 537q-2 0 -6 -1t-6 -1q-109 -384 -164 -540z" />
<glyph unicode="B" horiz-adv-x="1306" d="M131 1409q4 10 175.5 17.5t236.5 7.5q103 0 190.5 -11.5t167.5 -40t136 -72t89 -111.5t33 -155q0 -116 -43.5 -184t-124.5 -110v-13q107 -22 185.5 -114.5t78.5 -237.5q0 -202 -148 -299.5t-425 -97.5q-142 0 -334.5 9t-200.5 15q-7 6 -14 695q-4 402 -4 574q0 123 2 128 zM483 858q23 -2 88 -2q112 0 169 38.5t57 111.5q0 40 -21 70.5t-54.5 46.5t-69 24t-72.5 8q-35 0 -95 -6zM498 283q71 -9 139 -9q118 0 175.5 43.5t57.5 116.5q0 79 -63 121.5t-182 42.5q-12 0 -123 -6q-2 -17 -3 -94.5t-1 -145.5v-69z" />
<glyph unicode="C" horiz-adv-x="1329" d="M66 727q0 154 53 287.5t149.5 231.5t239 154t313.5 56q163 0 289 -41t180 -94q0 -35 -51 -155t-86 -150q-169 98 -328 98t-266.5 -113.5t-107.5 -287.5q0 -106 30.5 -187t82 -128.5t112.5 -71t129 -23.5q47 0 94 10.5t77 21.5t68 33.5t48 29.5t36 26q31 -22 84 -110 t86 -158q-71 -81 -217 -140t-313 -59q-141 0 -257 39t-197.5 108.5t-138 166.5t-83 211.5t-26.5 244.5z" />
<glyph unicode="D" horiz-adv-x="1435" d="M132 704q6 610 18 721q67 17 448 17q176 0 322 -55t244 -152t152 -230.5t54 -289.5q0 -164 -45.5 -296.5t-138.5 -232.5t-247 -154.5t-359 -54.5q-130 0 -270.5 9t-174.5 20q-5 52 -5 288q0 161 2 410zM485 319q49 -8 131 -8q375 0 375 385q0 181 -110 293.5t-279 112.5 q-54 0 -108 -4v-34q0 -187 -9 -745z" />
<glyph unicode="E" horiz-adv-x="1191" d="M131 670q5 546 14 760q141 10 549 12q97 1 172 0q240 0 252 -6q10 -26 11 -144v-26q0 -98 -7 -142q-44 -6 -276 -6h-50q-196 0 -309 4l5 -250q55 1 110 1q98 -1 200 -3q160 -4 167 -10q5 -4 8 -28q3 -22 3 -54v-34v-36q0 -38 -1.5 -67.5t-2.5 -52t-1 -23.5q-1 -7 -169 -8 h-55q-137 0 -259 4q0 -154 -3 -262q145 3 350 4h93q125 0 162 -2q11 -52 11 -156q-1 -5 -1 -10q0 -112 -8 -141q8 -6 -198 -8q-103 -1 -214 -1q-112 -1 -233 1q-242 2 -318 10q-4 75 -4 292q0 155 2 382z" />
<glyph unicode="F" horiz-adv-x="1173" d="M133 1430q67 8 519 10h110q343 0 358 -8q12 -24 12 -144v-14q0 -109 -8 -154q-45 -5 -194 -5q-37 1 -81 1q-219 2 -357 6l8 -360q45 1 92 1q107 1 227 -3q174 -4 182 -12q5 -4 8.5 -26t4 -51.5t0.5 -64.5t-1 -63.5t-2 -50.5l-1 -21q0 -7 -179 -9h-95q-124 0 -230 3 q5 -225 5 -354q0 -64 -1 -105q-6 -13 -178 -18q-54 -2 -92 -2q-83 0 -90 8q-6 63 -15 696q-5 356 -5 546q0 147 3 194z" />
<glyph unicode="G" horiz-adv-x="1409" d="M66 727q0 154 51 287.5t144.5 231.5t233.5 154t310 56q162 0 286.5 -43t184.5 -96q0 -29 -62.5 -145.5t-91.5 -147.5q-156 88 -311 88q-159 0 -262 -112.5t-103 -286.5q0 -211 99 -319.5t260 -108.5q80 0 184 37l-4 194q-196 -6 -237 -8q-8 9 -10 128v40q0 82 7 94 q50 11 307 19q108 3 172 3q89 0 97 -6q9 -19 9 -251v-75q-2 -303 -9 -343q-75 -60 -231.5 -109t-321.5 -49q-175 0 -311 59.5t-220.5 164.5t-127.5 243t-43 301z" />
<glyph unicode="H" horiz-adv-x="1546" d="M131 702q-2 192 -2 335q0 315 8 395q3 20 93 24q35 2 70 2l110 -4q90 -7 94 -14q9 -150 12 -580q254 4 510 4q4 473 10 551q50 13 204 13q7 0 15 1q140 0 146 -10q11 -4 11 -607v-56q0 -659 -15 -758q-5 -20 -96 -24q-37 -2 -74 -2q-53 0 -106 4q-89 6 -89 14 q-2 88 -6 538q-207 -3 -353 -3q-88 0 -153 1q0 -375 -6 -534q-54 -14 -210 -16q-22 0 -41 -1q-115 0 -118 13q-9 101 -14 714z" />
<glyph unicode="I" horiz-adv-x="649" d="M133 687v92q0 488 10 642q48 16 186 16h17q152 -1 162 -12q10 -62 10 -637v-58q0 -630 -12 -730q-8 -23 -161 -23h-25q-177 2 -179 15q-7 129 -8 695z" />
<glyph unicode="J" horiz-adv-x="987" d="M6 100q-3 20 50.5 145.5t78.5 147.5q72 -49 111 -63q44 -15 90 -15q71 0 116.5 46.5t45.5 152.5q0 145 -7.5 478.5t-7.5 428.5q53 13 205 21q69 3 108 3q48 0 52 -5q18 -95 18 -955q0 -249 -123 -379.5t-344 -130.5q-140 0 -240 36t-153 89z" />
<glyph unicode="K" horiz-adv-x="1347" d="M132 700q-5 269 -5 438q0 271 12 287q23 17 172 17h17q164 -1 178 -8q4 -18 4 -93q0 -31 -1 -69q-2 -136 -7 -294l-6 -157q500 619 516 619q20 0 162 -46q143 -47 143 -63q-1 -11 -99 -144q-100 -134 -198 -263l-100 -129q69 -96 235.5 -393.5t175.5 -331.5 q-1 -8 -71.5 -36t-154.5 -50q-64 -17 -96 -17q-10 0 -18 2q-13 11 -85 137t-153 272.5t-94 168.5l-153 -172l2 -381q-28 -8 -184 -12q-44 -1 -76 0q-83 0 -92 6q-12 12 -24 712z" />
<glyph unicode="L" horiz-adv-x="1103" d="M132 748q3 628 13 682q8 9 182 14q62 2 102 2q73 0 75 -6q1 -24 1 -141q1 -137 -1 -399q-4 -488 -8 -583q150 5 326 6h56q131 0 183 -4q11 -49 13 -171q1 -29 1 -53q0 -76 -6 -95q0 -8 -390 -8h-51q-440 0 -491 10q-6 85 -6 441q0 134 1 305z" />
<glyph unicode="M" horiz-adv-x="1800" d="M45 35q6 82 114 706.5t128 685.5q7 23 157 26q34 1 63 1q94 0 120 -8q27 -41 123.5 -386t148.5 -575h10q66 279 157.5 600.5t117.5 344.5q14 14 168 18q43 1 77 0q86 0 107 -6q10 -6 112.5 -680.5t102.5 -732.5q-11 -18 -99 -33.5t-160 -18.5q-24 -1 -41 -1q-35 0 -44 4 q-7 37 -47 362.5t-62 529.5h-8q-48 -195 -128 -486t-115 -390q-23 -9 -142 -9q-7 1 -13 1q-131 0 -140 12q-17 38 -102.5 367t-127.5 510h-8q-10 -70 -39 -290.5t-52 -383t-36 -215.5q-12 -1 -28 -1q-57 0 -169 14q-144 18 -145 34z" />
<glyph unicode="N" horiz-adv-x="1513" d="M130 704q0 72 -1 137q0 476 10 576q5 25 168 31q48 2 83 1q82 0 87 -9q38 -58 115 -177.5t214 -343t214 -364.5q1 67 1 153t-1 192q-2 212 -3 317v41q0 82 3 155q51 13 188 13h10q146 0 156 -11q7 -2 7 -292q0 -145 -2 -361q-5 -650 -19 -748q-4 -24 -162 -32 q-55 -3 -93 -3q-71 0 -83 9q-17 21 -104.5 159.5t-217.5 346t-211 331.5q0 -121 5 -427q3 -191 3 -295q0 -63 -1 -95q-54 -14 -204 -14q-5 0 -10 -1q-141 0 -143 15q-7 98 -9 696z" />
<glyph unicode="O" horiz-adv-x="1542" d="M63 727q0 113 27.5 219t85.5 199.5t139.5 163.5t197.5 110.5t253 40.5q325 0 518 -205.5t193 -560.5q0 -111 -26 -215.5t-82 -199t-137 -165t-199.5 -112t-260.5 -41.5q-215 0 -376.5 96t-247 269.5t-85.5 400.5zM442 707q0 -176 88.5 -293t233.5 -117q160 0 240.5 113 t80.5 311q0 199 -85.5 302t-227.5 103q-156 0 -243 -113t-87 -306z" />
<glyph unicode="P" horiz-adv-x="1288" d="M132 697.5q0 621.5 13 719.5q199 23 498 23q293 0 449.5 -132.5t156.5 -375.5q0 -270 -153 -395t-453 -125q-19 0 -59.5 1t-51.5 1q0 -34 -0.5 -151t-2.5 -181.5t-7 -81.5q-6 -10 -193 -12q-41 -1 -73 -1q-115 0 -115 7q-9 82 -9 703.5zM522 733q74 -4 144 -4 q103 0 165 44.5t62 135.5q0 109 -72 152t-194 43q-59 0 -105 -6q1 -26 1 -97t-0.5 -159.5t-0.5 -108.5z" />
<glyph unicode="Q" horiz-adv-x="1544" d="M66 727q0 112 26.5 217t83.5 199.5t138 164.5t198.5 111t257.5 41q326 0 517.5 -205t191.5 -561q0 -132 -36.5 -253t-116 -226t-193.5 -166q88 -131 292 -233q-21 -56 -109 -145.5t-128 -110.5q-123 42 -242 159t-184 246q-76 0 -176 21q-243 52 -381.5 251.5 t-138.5 489.5zM455 711q0 -195 86.5 -302.5t228.5 -107.5q159 0 243.5 113.5t84.5 308.5q0 181 -87 294t-231 113q-158 0 -241.5 -112t-83.5 -307z" />
<glyph unicode="R" horiz-adv-x="1347" d="M133 688q6 628 19 729q199 23 485 23q301 0 459.5 -123t158.5 -375q0 -296 -260 -403q72 -86 149 -194q76 -109 120 -179q41 -66 41 -73q0 -17 -147 -77q-127 -51 -171 -51h-2q-2 0 -53 78t-139 207.5t-162 226.5q-8 -2 -27 -2q-58 0 -108 4q-6 -444 -11 -479 q-17 -6 -182 -10q-50 -1 -85 -2q-80 0 -83 6q-5 38 -5 259q0 166 3 435zM516 764q58 -6 148 -6q104 0 164.5 43.5t60.5 132.5q0 91 -55 139.5t-183 48.5q-73 0 -135 -6q1 -24 1 -93t-0.5 -154.5t-0.5 -104.5z" />
<glyph unicode="S" horiz-adv-x="1189" d="M63 135q-1 3 -1 7q0 24 21 87q24 74 54 139q28 60 39 60h2q3 -2 22 -14t32 -20t39 -22.5t47 -24t51.5 -21.5t58 -19.5t61 -12.5t64.5 -5q199 0 199 125q0 35 -20.5 61t-78.5 50.5t-161 45.5q-209 43 -313.5 148.5t-104.5 300.5q0 88 35.5 166.5t102 139t169.5 95.5 t229 35q155 0 285.5 -35t194.5 -86q4 -3 4 -12q0 -21 -17 -69q-25 -72 -59 -138t-45 -65q-1 0 -12.5 5.5t-19.5 9t-25 11t-31.5 12.5t-35.5 12t-40 12.5t-43.5 11t-47 9t-49 5.5t-51.5 2q-89 0 -134.5 -32t-45.5 -85q0 -50 45.5 -79.5t188.5 -61.5q85 -20 151 -43.5 t127.5 -60t102 -83.5t64.5 -113.5t24 -148.5q0 -84 -34.5 -161.5t-102 -141.5t-180.5 -102.5t-257 -38.5q-155 0 -294.5 46.5t-209.5 98.5z" />
<glyph unicode="T" horiz-adv-x="1167" d="M30 1285v37q0 90 7 95q21 11 516 22q259 6 402 6q130 0 163 -5q20 -5 22 -159v-41q0 -113 -10 -114q-32 -4 -362 -16q2 -428 2 -691q0 -368 -4 -411q-8 -11 -182 -16q-48 -1 -84 -1q-91 0 -92 9q-6 82 -8 461q-1 152 -1 286q0 202 2 367q-120 -2 -200 -2q-121 0 -156 4 q-13 43 -15 169z" />
<glyph unicode="U" horiz-adv-x="1466" d="M115 586q0 182 9 467t21 360q5 22 150 22q15 -1 31 -1q176 -2 182 -15q2 -8 2 -45q0 -42 -2 -120q-4 -149 -11.5 -345t-7.5 -280q0 -164 57.5 -235.5t178.5 -71.5q238 0 238 299q0 150 -7.5 467.5t-7.5 347.5q21 14 201 20q54 2 93 2q88 0 91 -10q6 -26 11.5 -335.5 t5.5 -514.5q0 -637 -619 -637q-616 0 -616 625z" />
<glyph unicode="V" horiz-adv-x="1363" d="M25 1411q6 16 101.5 28.5t175.5 12.5q7 0 15 1q68 0 84 -5q14 -32 132 -467t139 -549q2 0 6 1t6 1q25 119 129 503.5t143 506.5q5 4 41 4q47 0 151 -7q182 -12 187 -32q-27 -127 -221.5 -763.5t-208.5 -645.5q-15 -9 -203 -15q-87 -3 -143 -3q-65 0 -86 4 q-4 1 -106 306.5t-213 660.5t-129 458z" />
<glyph unicode="W" horiz-adv-x="1957" d="M53 1401q11 18 99.5 33.5t160.5 17.5q24 1 42 1q35 0 44 -3q22 -92 89.5 -441t84.5 -505h9q41 183 128 504.5t124 425.5q25 8 148 7q8 1 16 1q137 0 147 -12q18 -40 107.5 -402.5t123.5 -527.5h8q18 142 88.5 486.5t98.5 453.5q15 2 38 2q58 0 163 -13q146 -18 147 -36 q-7 -73 -147 -696t-162 -693q-6 -15 -90 -21q-59 -4 -120 -4q-25 1 -51 1q-87 2 -110 8q-25 55 -113.5 370t-138.5 531h-12q-70 -282 -150 -570t-100 -319q-12 -17 -182 -17t-199 9q-13 6 -152 678t-139 731z" />
<glyph unicode="X" horiz-adv-x="1282" d="M16 73q0 15 145 281q148 272 214 379q-19 28 -173 312t-153 301q-1 18 155 66q136 41 169 41q5 0 8 -1q5 -3 51 -84.5t106 -197.5t93 -193h12q254 473 270 475h2q27 0 173 -42q152 -44 153 -62q0 -18 -157 -302q-158 -286 -177 -313q66 -109 214 -373t147 -274 q-5 -14 -160 -62q-135 -41 -187 -41q-8 0 -14 1q-9 3 -103 173.5t-163 305.5h-12q-66 -133 -159.5 -304t-100.5 -171q-8 -1 -19 -1q-54 0 -180 32q-154 41 -154 54z" />
<glyph unicode="Y" horiz-adv-x="1288" d="M180 1412q135 41 168 41q5 0 8 -1q5 -3 60 -105t123.5 -237t101.5 -211h12q18 33 63.5 117.5t80.5 149t74 135.5t62.5 110.5t27.5 40.5h2q27 0 172 -42q152 -45 153 -62q0 -8 -40.5 -80.5t-107 -187t-124 -211.5t-121 -204.5t-68.5 -115.5q1 -135 1 -237q0 -257 -7 -312 q-5 -17 -97 -20q-31 -2 -62 -2q-61 0 -121 5q-90 7 -90 15q-2 27 -3 70v48v56q1 62 2 114t2.5 135t2.5 132q-7 13 -67.5 120t-114.5 204t-115.5 208.5t-98.5 182.5q-36 69 -36 78q0 18 157 66z" />
<glyph unicode="Z" horiz-adv-x="1173" d="M70 229v68q2 4 129.5 189.5t267 387t166.5 236.5l2 8h-545q-7 2 -15 156q-3 54 -3 90q0 67 10 70q18 6 500 8q268 1 390 1q98 0 103 -1q5 -4 19 -150q11 -114 11 -148q0 -10 -1 -14q-1 -3 -129 -190t-267.5 -387.5t-164.5 -230.5v-8q24 1 115 2h174q247 -2 266 -7 q6 -2 6 -89v-63q-2 -149 -12 -155q-12 -8 -506 -10h-160q-336 0 -338 6q-9 25 -14 101q-5 69 -5 120q1 5 1 10z" />
<glyph unicode="[" horiz-adv-x="753" d="M117 1458l594 8q1 0 2.5 -54.5t1.5 -101.5t-2 -57q-4 -4 -151 -9t-171 -3q-12 -10 2 -1317v-6l316 -6q2 -219 -4 -221q-2 -1 -45.5 -0.5t-107 2t-138 3t-137 3.5t-105.5 3l-43 1z" />
<glyph unicode="\" horiz-adv-x="890" d="M39 1446q0 4 48.5 24.5t96.5 39.5l49 18q3 -3 311 -739t308 -740q0 -5 -81.5 -51.5t-104.5 -52.5q-21 -5 -324 739.5t-303 761.5z" />
<glyph unicode="]" horiz-adv-x="743" d="M40.5 1307.5q0.5 46.5 2 100.5t2.5 54l600 -6q-49 -1751 -51 -1751q-535 0 -543 4q-2 1 -3.5 23.5t-2 55t-0.5 65v55.5v22q20 -1 52.5 -2t101.5 -3.5t115 -4t46 -0.5q1 84 3 221t5.5 426.5t3.5 482.5t-5 193q-316 0 -324 8q-3 10 -2.5 56.5z" />
<glyph unicode="^" horiz-adv-x="962" d="M59 930q-9 6 151.5 269.5t180.5 279.5q8 8 101.5 13t107.5 3q11 0 161.5 -276t141.5 -285q-11 -10 -84.5 -35.5t-83.5 -21.5q-7 3 -123 205.5t-118 203.5q-5 3 -128.5 -205t-125.5 -217q-4 -5 -88 27t-93 39z" />
<glyph unicode="_" horiz-adv-x="866" d="M107.5 -174q6.5 98 11.5 102q645 -8 645 -12q0 -178 -2 -182q-1 -4 -322 -7.5t-331 -0.5q-8 2 -1.5 100z" />
<glyph unicode="`" horiz-adv-x="819" d="M125 1307q-3 1 20 46.5t51 91t37 46.5q4 2 119 -57.5t228 -119.5l112 -61l-17.5 -40t-35.5 -67t-41 -48q-4 -1 -120.5 50.5t-234 105t-118.5 53.5z" />
<glyph unicode="a" horiz-adv-x="1024" d="M51 295q0 135 105 218t262 83q116 0 190 -55q2 22 0 46t-4.5 47.5t-14.5 44t-30.5 36.5t-51.5 25.5t-77 9.5t-83 -14.5t-60.5 -31.5t-39 -31.5t-22.5 -15.5q-15 0 -87 65q-71 64 -70 81q0 11 17 37q16 25 50.5 58t80.5 62t116 49.5t147 20.5q199 0 325 -116t126 -332 q0 -160 -6 -361.5t-11 -210.5q-3 -5 -69 -5t-130 3l-65 2l-18 88q-112 -112 -262 -112q-160 0 -239 84t-79 225zM326 301q0 -51 38 -83t95 -32q64 0 99.5 33t35.5 82q0 53 -38.5 85t-96.5 32q-59 0 -96 -33.5t-37 -83.5z" />
<glyph unicode="b" horiz-adv-x="1216" d="M87 1268v43q0 198 17 217q22 22 106 24h23q71 0 135 -8q74 -10 81 -16q7 -7 11 -291q3 -197 3 -280v-52q21 33 100.5 75t181.5 42q82 -1 155.5 -32.5t132 -91.5t92.5 -155.5t34 -214.5q0 -137 -36 -244t-97.5 -172t-139 -98.5t-165.5 -33.5q-106 0 -194.5 47t-110.5 79 q0 -1 1 -31t1 -56.5t-2 -32.5q-23 -8 -147 -10q-36 -1 -63 0q-63 0 -65 4q-3 11 -16 245t-24.5 518.5t-13.5 524.5zM438 508q0 -96 53.5 -158.5t145.5 -62.5q98 0 154.5 57.5t56.5 161.5q0 97 -59.5 159t-149.5 62q-94 0 -147.5 -58t-53.5 -161z" />
<glyph unicode="c" horiz-adv-x="983" d="M53 508q0 97 37 189t103.5 164t168.5 115.5t222 43.5q98 0 184.5 -24t127 -48t44.5 -37q1 -4 1 -9q1 -32 -29 -134q-34 -119 -60 -127q-4 -1 -39 21.5t-92 45.5t-109 23q-111 0 -173 -61t-62 -178q0 -56 15.5 -99.5t38 -67.5t54.5 -39.5t59.5 -20.5t57.5 -5q26 0 55 6 t55.5 16.5t45.5 19.5t38.5 20t22.5 12h2q15 0 51 -65q40 -69 70 -134q-41 -68 -139 -115t-213 -47q-112 0 -203.5 31t-152.5 83t-102.5 121.5t-60 144.5t-18.5 155z" />
<glyph unicode="d" horiz-adv-x="1245" d="M57 514q0 116 40.5 211.5t107.5 157t151.5 95t175.5 34.5q89 0 168.5 -40t96.5 -69q0 620 14 629q15 12 161 16q33 1 60 1q94 0 119 -11q1 0 1 -27q0 -117 -11 -736q-13 -761 -17 -777q-4 -4 -62 -9q-45 -4 -100 -4q-16 1 -34 1q-74 2 -107 14q0 71 -6 113 q-20 -31 -107.5 -75t-199.5 -44q-88 0 -168 34t-143.5 97.5t-101.5 164.5t-38 224zM410 502q0 -101 56 -157t144 -56q99 0 151 59.5t52 155.5q0 98 -58.5 155.5t-144.5 57.5q-95 0 -147.5 -59t-52.5 -156z" />
<glyph unicode="e" horiz-adv-x="1032" d="M55 485q0 105 32.5 200.5t93 170.5t156 119.5t212.5 44.5q99 0 182.5 -35.5t139 -95.5t86 -138.5t30.5 -164.5q0 -96 -18 -158q-69 -10 -290 -12q-85 -1 -150 0q-104 0 -156 2q0 -83 57 -129.5t162 -46.5q125 0 239 71q16 -16 61 -107.5t46 -113.5q-48 -44 -148.5 -80.5 t-214.5 -36.5q-134 0 -237 42.5t-163 115t-90 161.5t-30 191zM371 606l321 6v11q0 71 -36 117q-38 50 -109 51q-78 0 -127 -53t-49 -132z" />
<glyph unicode="f" horiz-adv-x="825" d="M25 981q4 5 51.5 11.5t93 10.5t45.5 5l-1 12q0 12 -1 32t-2 44t-1.5 52.5t-0.5 53.5q0 65 24 125.5t68 108.5t113 77t153 29q114 0 198.5 -33t127.5 -69q-7 -46 -36 -142.5t-40 -97.5h-1q-10 0 -62 23q-55 24 -97 24q-62 0 -92.5 -41t-32.5 -102q0 -14 1 -33t1.5 -33 t0.5 -16q5 -2 70 -2.5t127.5 -5t68.5 -17.5q6 -87 6 -142q0 -70 -10 -89q-5 -9 -129 -13q-70 -2 -102 -2l-27 1q-1 0 5 -185q5 -186 9 -375q2 -94 2 -142t-2 -50q-9 -9 -165 -16q-50 -2 -85 -2q-76 0 -84 10q-3 4 -4.5 38.5t-2.5 87t-1.5 119.5t-0.5 134v134.5t0.5 117.5 t0.5 85.5v36.5q-6 1 -85.5 1t-84.5 2q-6 3 -15 114q-4 60 -4 90q0 25 3 29z" />
<glyph unicode="g" horiz-adv-x="1241" d="M57 489q0 116 40 215.5t107 165.5t153.5 103t179.5 37q92 0 168 -32t126 -85q0 6 2.5 55.5t2.5 55.5q22 13 111 13q19 0 42 -1q126 -3 133 -10q7 -39 19 -799v-14q0 -105 -14 -193q-15 -94 -42 -161.5t-67 -119.5t-84.5 -85t-99 -54t-106.5 -29t-110 -8q-163 0 -288 52 t-150 96q13 48 45.5 116t57.5 103q2 2 16.5 -5.5t41 -21.5t59 -28t80 -24.5t95.5 -10.5q126 0 183 82q53 79 53 211v14q-8 -14 -26.5 -31.5t-51 -39t-86 -36t-117.5 -14.5q-84 0 -166.5 31.5t-151.5 90t-112 153t-43 208.5zM412 489q0 -99 51.5 -157t146.5 -58 q87 0 146 57.5t59 155.5q0 97 -52.5 156t-152.5 59q-87 0 -142.5 -56t-55.5 -157z" />
<glyph unicode="h" horiz-adv-x="1204" d="M108 730v288q0 449 5 516q7 7 85 14q52 5 104 5l52 -1q78 -4 82 -24q2 -17 2 -88q0 -79 -2 -224q-4 -275 -10 -315q91 123 268 123q204 0 311 -118t107 -322q0 -113 -10.5 -332t-18.5 -246q-7 -12 -161 -14q-51 -1 -86 -1q-69 0 -70 3q-2 34 -2 102v36q0 94 2 245.5 t2 171.5q0 73 -40 129.5t-114 56.5q-80 0 -127 -51.5t-47 -116.5q0 -565 -8 -573q-3 -4 -81 -4h-77q-154 2 -159 12t-7 728z" />
<glyph unicode="i" horiz-adv-x="544" d="M96 1335q0 93 38.5 142t141.5 49q85 0 137 -54.5t52 -148.5q0 -68 -53.5 -114t-135.5 -46t-131 44.5t-49 127.5zM108 500q-3 229 -3 355q0 145 4 155q9 11 120 11q21 -1 47 -1q156 -2 164 -10q1 -2 2 -63q0 -115 -6 -437q-8 -494 -12 -506q-7 -9 -139 -9q-7 1 -15 1 q-147 0 -151 6t-11 498z" />
<glyph unicode="j" horiz-adv-x="548" d="M-41 -248q14 3 36.5 18.5t50.5 45.5t47 85q18 52 18 117v7q0 59 -1.5 241.5t-1.5 277.5q-1 48 -1 103.5t1 118.5q0 128 3 186.5t8 59.5q56 7 111 7q19 0 38 -1q74 -3 127 -10.5t58 -12.5v-5q0 -24 -4 -158q-5 -162 -11 -412.5t-6 -417.5q0 -85 -16.5 -154.5t-43.5 -117.5 t-66 -86t-79.5 -61t-89.5 -40h-1q-6 0 -21 9q-17 10 -41 30t-47.5 45t-42.5 59t-25 66zM111 1364q0 69 52 115.5t134 46.5q83 0 131.5 -45.5t48.5 -128.5q0 -92 -38 -140.5t-142 -48.5q-84 0 -135 53.5t-51 147.5z" />
<glyph unicode="k" horiz-adv-x="1126" d="M102 758q-7 339 -6 530q0 234 10 246q22 16 145 16h22q143 -2 157 -10q3 -24 3 -118v-112q-2 -194 -9 -418l-6 -224q406 381 426 381q18 0 128 -69q112 -70 111 -89q1 -14 -77 -88q-78 -75 -158 -144l-78 -69l247 -372q101 -154 101 -165q0 -13 -133 -63 q-113 -42 -163 -42q-7 0 -13 1q-7 1 -76.5 118.5t-138.5 234.5q-68 116 -76 116q-6 0 -28 -19q-22 -18 -40 -35l-18 -18l10 -364h-79q-220 0 -232 10q-13 10 -29 766z" />
<glyph unicode="l" horiz-adv-x="536" d="M108 376q-1 105 0 211q0 275 4 551q6 382 21 394q20 20 160 20h11q129 0 132 -12q4 -8 4 -150q0 -178 -6 -568q-12 -700 -22 -838h-85q-195 0 -208 8q-9 6 -11 384z" />
<glyph unicode="m" horiz-adv-x="1753" d="M104 547v111q0 167 2 339q12 16 103 16q26 0 59 -1q147 -6 162 -21q-5 -103 -6 -110q92 139 289 139q84 0 152 -39.5t110 -108.5q25 43 65 74.5t85.5 46t84 21t74.5 6.5q188 0 280.5 -114t92.5 -318q0 -104 -5.5 -311t-9.5 -279q-1 -12 -158 -15q-52 -1 -88 -1 q-71 0 -73 4q-2 26 -2 85v43q1 94 3.5 252t2.5 189q0 84 -29.5 130t-105.5 46q-40 0 -70 -18t-45.5 -46t-22.5 -56t-7 -54q0 -332 -13 -553q-2 -10 -108 -10h-48q-154 2 -159 8q-3 38 -3 130t2.5 249.5t2.5 173.5q0 83 -30.5 129.5t-104.5 46.5q-73 0 -112.5 -49t-39.5 -107 q0 -95 -3 -337.5t-7 -247.5q-3 -4 -79 -4h-77q-152 2 -155 12q-2 4 -5 166t-4 383z" />
<glyph unicode="n" horiz-adv-x="1191" d="M104 540v109q0 165 2 336q13 19 162 27q54 3 90 3q63 0 72 -9q-6 -121 -6 -123q39 59 118 101t193 42q166 0 264.5 -121.5t98.5 -320.5q0 -109 -5.5 -310.5t-11.5 -273.5q-1 -13 -156 -15q-44 -1 -76 -1q-80 0 -83 4q-3 38 -3 130.5t2.5 253t2.5 177.5q0 86 -39.5 137 t-116.5 51q-80 0 -130 -51.5t-50 -116.5q0 -558 -8 -569q-3 -4 -79 -4h-77q-152 2 -155 12q-2 4 -5 160t-4 372z" />
<glyph unicode="o" horiz-adv-x="1144" d="M53 510q0 96 36.5 187t101.5 162.5t163.5 115t214.5 43.5q109 0 204.5 -36.5t166 -103.5t111.5 -169t41 -226q0 -100 -35.5 -190t-100.5 -160.5t-164.5 -113t-218.5 -44.5q-224 0 -372 145.5t-148 389.5zM369 485q0 -102 55.5 -161.5t132.5 -61.5h10q99 0 153 56 q56 60 56 169q0 113 -54 165t-136 55h-10q-100 0 -152 -58q-56 -61 -55 -164z" />
<glyph unicode="p" horiz-adv-x="1245" d="M102 -70q2 316 9.5 696t15.5 400q6 1 26 1t55 -1q68 -2 147 -6l79 -4q0 -6 -1 -55.5t-1 -55.5q6 11 29 28.5t60 38t95.5 34.5t122.5 14q92 0 172.5 -34t142.5 -98t98 -164t36 -224q0 -119 -38.5 -217.5t-104 -161.5t-150.5 -97.5t-180 -35.5q-91 0 -170 32t-94 58 q0 -8 0.5 -76.5t0.5 -132.5t-0.5 -136.5t-3.5 -119t-8 -49.5q-15 -11 -161 -16q-36 -1 -64 -1q-90 0 -113 11q-1 28 -1 120.5t1 251.5zM442 498q0 -97 58.5 -157t138.5 -60q95 0 149 59t54 156q0 101 -54.5 157t-140.5 56q-101 0 -153 -57.5t-52 -153.5z" />
<glyph unicode="q" horiz-adv-x="1222" d="M57 477q0 137 36 244t98 172.5t139.5 99t165.5 33.5q62 0 121.5 -16.5t100 -40t64.5 -41t33 -27.5q15 106 16 109q7 2 137 6q61 3 95 3q38 0 43 -3q7 -14 7 -615q0 -43 -1 -89q0 -688 -8 -754q-4 -19 -85 -20q-12 -1 -24 -1q-69 0 -137 7q-80 9 -86 16q-3 2 -4.5 49 t-2 121t-0.5 139.5t0.5 135t0.5 77.5q-15 -30 -98.5 -63t-192.5 -33q-82 0 -156 31.5t-133 91t-94 155t-35 213.5zM383 498q0 -97 60.5 -159.5t150.5 -62.5q93 0 146 60.5t53 163.5q0 96 -52.5 155.5t-144.5 59.5q-98 0 -155.5 -56.5t-57.5 -160.5z" />
<glyph unicode="r" horiz-adv-x="821" d="M106 479q0 476 7 504q13 23 159 31q53 3 89 4q63 0 71 -10q1 -19 1 -50.5t-1 -61.5v-30q53 93 149 125q63 21 133 21q37 0 77 -6q13 -8 13 -56q0 -40 -9 -106q-20 -148 -47 -180q-84 20 -135 20h-9q-68 -1 -107 -44t-48 -114q-1 -7 -1 -34q0 -40 2 -122q3 -138 5 -242 q1 -35 1 -62q0 -52 -3 -68q-3 -8 -170 -8h-19q-148 0 -153 8q-5 5 -5 398v83z" />
<glyph unicode="s" horiz-adv-x="931" d="M57 78q-2 2 -2 8q-1 16 15 62q20 60 47 114.5t35 50.5q4 -2 40 -23t69 -37.5t84.5 -32t96.5 -15.5q60 0 91.5 19.5t31.5 54.5t-34.5 55.5t-131.5 38.5q-172 29 -254 103.5t-82 203.5q0 164 106.5 255t295.5 91q126 0 240.5 -32t140.5 -58q3 -3 3 -9q0 -26 -36 -114 q-45 -111 -57 -113q-1 0 -42 20t-103 40t-115 20q-56 0 -85.5 -23t-29.5 -57t33 -52t121 -30q186 -27 269 -98t83 -211q0 -69 -24.5 -130t-72.5 -109.5t-128.5 -76.5t-184.5 -28q-137 0 -264 41t-156 72z" />
<glyph unicode="t" horiz-adv-x="831" d="M36 890v12q0 108 9 110q1 0 13 1q20 1 64 -1q20 0 35 -1q40 0 40 3q1 2 1 115t11 124q13 13 158 24q84 6 122 6q28 0 31 -3q3 -10 3 -40q-1 -16 -1 -36q-2 -60 -4 -129q-2 -49 -2 -63v-6q1 4 71 4h48q118 -2 131 -19q9 -13 10 -71v-29q0 -43 -2 -83l-4 -52 q-6 -11 -71.5 -12t-128 -1t-62.5 -6q0 -3 -1.5 -67.5t-3.5 -153.5t-3 -141q0 -50 25.5 -80t74.5 -31q31 0 63 12t54.5 23.5t32.5 9.5q17 -4 43 -99.5t28 -135.5l-11 -11t-33 -24.5t-57.5 -31t-84.5 -24.5q-49 -10 -103 -10h-10q-173 0 -261.5 86.5t-88.5 241.5q1 27 2.5 83 t3.5 117t4 118.5t3 94.5l1 38q0 1 -33 1.5t-68.5 2.5t-39.5 6q-9 8 -9 128z" />
<glyph unicode="u" horiz-adv-x="1179" d="M90 408q0 161 27 593q3 13 158 15h68q88 0 91 -4q1 -3 1 -19q0 -32 -3 -115q-4 -124 -9 -264t-5 -172q0 -88 38.5 -136t116.5 -48q80 0 126.5 52t48.5 124q0 81 5.5 324t10.5 248q3 4 70 4q34 0 84 -1q150 -3 157 -12q1 -6 1 -71q0 -195 -13 -922q-14 -17 -127 -17h-25 q-137 2 -153 17q1 18 1 45v46.5t1 25.5q-41 -60 -119.5 -106t-183.5 -46q-367 0 -367 439z" />
<glyph unicode="v" horiz-adv-x="1116" d="M169.5 1007q134.5 25 162.5 25q16 0 217 -663q34 93 143 378.5t117 286.5h1q9 0 81 -14q77 -16 153 -35q75 -19 74 -24q-14 -58 -117.5 -299.5t-201 -455.5t-103.5 -220q-19 -9 -74 -9h-22q-72 2 -151 8t-80 9q-3 6 -85 234t-166 472q-83 242 -83 270q0 12 134.5 37z" />
<glyph unicode="w" horiz-adv-x="1626" d="M174.5 1007q135.5 25 161.5 25q11 0 54 -168.5t80 -337.5l38 -168q28 87 99 267.5t81 214.5q-3 12 -16 48.5t-22 66.5t-9 40q15 15 139 29q69 7 106 7q30 0 38 -5q9 -5 53 -161t89 -328t46 -175q4 11 54.5 182t99.5 331t53 161h1q10 0 79 -14q74 -16 146 -34 q71 -18 71 -23q-13 -59 -94.5 -300.5t-158 -457.5t-81.5 -221q-20 -9 -75 -9h-21q-72 2 -149.5 9t-78.5 10q-2 2 -21.5 62.5t-53.5 179.5t-64 237q-40 -116 -86 -236.5t-72.5 -184t-29.5 -68.5q-20 -9 -75 -9h-20q-72 2 -150 8t-79 9q-2 4 -68.5 233t-133.5 473 q-66 241 -66 272q0 10 135.5 35z" />
<glyph unicode="x" horiz-adv-x="1075" d="M14 33q10 33 105.5 184.5t189.5 286.5q-33 65 -105 184q-72 118 -120 202q-48 82 -47 96q0 9 139 27.5t166 18.5q9 0 53 -74.5t91.5 -162.5t48.5 -90q2 3 23.5 40t49 83.5t56 94t49.5 80t24 33.5h4q15 0 83 -8q80 -10 156 -24q75 -13 75 -19q0 -21 -102 -189 q-91 -150 -177 -278q32 -64 101 -189t114 -209.5t45 -96.5q-1 -9 -140.5 -29.5t-166.5 -20.5q-9 1 -50.5 74.5t-89.5 165.5t-54 102q-10 -16 -60 -103t-93.5 -159.5t-47.5 -72.5h-3q-23 0 -164 22q-153 24 -153 31z" />
<glyph unicode="y" horiz-adv-x="1091" d="M167 1007q140 25 167 25q12 0 65 -144.5t101 -289.5l47 -145q223 579 233 581h2q18 0 158 -30q150 -33 150 -41q-26 -97 -312.5 -746.5t-310.5 -677.5h-6q-55 0 -167 48q-119 51 -136 73q1 4 46.5 102.5t95.5 209.5t60 141q-58 115 -196 467q-137 350 -137 390 q0 12 140 37z" />
<glyph unicode="z" horiz-adv-x="919" d="M64 882q4 120 18 124q14 2 384 8q272 4 347 5q27 0 29 -1q4 -2 12 -108q6 -72 5 -102q0 -14 -1 -17q-2 -3 -204 -269t-205 -272q27 5 199 9q46 1 81 1q98 0 117 -8q4 -3 4 -67v-62q-2 -125 -10 -131q-7 -3 -172 -3q-84 1 -206 1q-368 2 -374 4q-3 2 -9.5 49.5t-8.5 97.5 q-1 17 -1 31q0 29 3 51q0 3 101 134t201 261l101 130q-5 0 -13 -0.5t-34 -2t-51.5 -3t-60 -2.5t-65 -2t-62 -0.5t-55 1.5t-40.5 4t-22 7q-10 9 -10 77q1 24 2 55z" />
<glyph unicode="{" horiz-adv-x="663" d="M23.5 630q1.5 58 7.5 58q128 0 178.5 23t50.5 94q0 20 -31.5 150t-31.5 190q0 89 30.5 155.5t87 106.5t130 59t165.5 19q11 -25 14 -76t-1.5 -92t-12.5 -41q-204 0 -204 -162q0 -44 34.5 -165t34.5 -171q0 -75 -56 -131t-114 -67v-7q62 -20 116 -70.5t54 -125.5 q0 -68 -40 -184.5t-40 -169.5q0 -76 46.5 -106t156.5 -30q4 -16 5 -66.5t0 -94t-3 -43.5q-222 0 -333 68t-111 226q0 56 36.5 169t36.5 190q0 119 -188 119q-9 0 -14 58.5t-3.5 116.5z" />
<glyph unicode="|" horiz-adv-x="393" d="M117 1509q7 11 47 14.5t76 2t36 -3.5v-1964l-84 -15q-54 -7 -57 4q-4 18 -13.5 986t-4.5 976z" />
<glyph unicode="}" horiz-adv-x="663" d="M43 -241q-3 51 1 91.5t11 40.5q95 0 149 35.5t54 124.5q0 45 -35 166.5t-35 171.5q0 75 56 132t114 67v6q-26 8 -53 24t-54.5 40t-45 59t-17.5 74q0 68 40 184t40 168q0 78 -46 107.5t-156 29.5q-4 16 -5.5 67t-0.5 94.5t3 43.5q222 0 334.5 -69t112.5 -226 q0 -56 -38 -168t-38 -191q0 -118 191 -118q8 0 12.5 -58.5t3 -117t-7.5 -58.5q-129 0 -179.5 -22t-50.5 -95q0 -20 33 -149.5t33 -189.5q0 -174 -112 -257t-302 -83q-9 25 -12 76z" />
<glyph unicode="~" horiz-adv-x="1140" d="M72 698q0 4 14.5 20.5t43.5 39.5t64 45t83.5 37.5t95.5 15.5q51 0 107.5 -27.5t98.5 -60.5t93.5 -60.5t93.5 -27.5q89 0 186 121q11 -5 42 -36.5t56 -61t25 -31.5q0 -3 -15.5 -23.5t-46 -51t-68.5 -60t-90.5 -50t-104.5 -20.5t-102 18t-88.5 43.5t-73.5 51t-71 43.5 t-67 18q-26 0 -52 -8.5t-47 -22t-36.5 -26t-26.5 -24.5l-12 -11q-2 -2 -13.5 11.5t-26 35t-29 43.5t-24 39t-9.5 20z" />
<glyph unicode="&#xa1;" horiz-adv-x="579" d="M70 805q0 108 48 165.5t169 57.5q96 -2 156.5 -64t60.5 -169q0 -84 -62.5 -139.5t-162.5 -55.5q-94 2 -151.5 54.5t-57.5 150.5zM92 -430q1 166 32.5 380t61.5 346.5t39 147.5q10 13 67.5 10.5t63.5 -10.5q5 -7 39.5 -152.5t70 -358.5t34.5 -347q-31 -15 -202.5 -22 t-205.5 6z" />
<glyph unicode="&#xa2;" horiz-adv-x="1036" d="M68 508q0 97 37 188.5t103 164t168 116t222 43.5q38 0 104 -8l35 108q7 8 37 1t64 -19l34 -12l-36 -113q55 -21 93 -46t42 -36q5 -22 -37.5 -134t-67.5 -120q-4 -1 -19.5 7.5t-44.5 24.5t-54 27l-142 -440h2q22 0 48 5t46.5 11.5t44.5 16t38 16.5t30.5 15.5t18.5 9.5 q13 4 51.5 -64t70.5 -135q-41 -68 -139 -115t-213 -47q-41 0 -88 7l-49 -154l-80 20q-39 13 -37 21q10 39 41 139q-110 39 -184.5 121t-106.5 178t-32 203zM383 492q0 -145 96 -201l135 440q-109 -2 -170 -63t-61 -176z" />
<glyph unicode="&#xa3;" horiz-adv-x="1128" d="M76 696.5q-3 70.5 2 71.5h125q-41 213 -41 297q0 98 37 175t101.5 123.5t145.5 70.5t175 24q87 0 164 -20.5t126.5 -50t86.5 -63t53.5 -58t17.5 -35.5q0 -23 -72.5 -112t-122.5 -115q-2 5 -7 13t-23 28.5t-39.5 36.5t-57.5 29t-77 13q-64 0 -105 -43.5t-41 -119.5 q0 -70 29 -197l270 -2q3 -1 3.5 -60.5t-1.5 -62.5q-1 -1 -17.5 -1t-82 -0.5t-147.5 -2.5q13 -71 15 -123.5t-15.5 -107.5t-59.5 -91l134 1q134 2 233.5 1t124.5 -6q14 -41 18.5 -117.5t1.5 -134t-8 -59.5q-45 -4 -234 -2.5t-429 4.5t-257 2q-14 -4 1 205q1 7 1 10 q48 12 79 41.5t45.5 66t17.5 89t-2 101.5t-17 112q-21 0 -67 -1t-74 -1q-7 1 -10 71.5z" />
<glyph unicode="&#xa4;" horiz-adv-x="1069" d="M70 922q4 4 17 20.5t28.5 36t30.5 38t25.5 30.5t12.5 10l103 -117q98 64 248 64q131 0 229 -68l133 127q105 -109 107 -125q1 -7 -40 -55t-81 -90q32 -87 32 -168q0 -152 -79 -258q19 -22 52 -57t52 -55.5t18 -21.5q-3 -3 -28.5 -26.5t-58 -51.5t-42.5 -34 q-11 -8 -58 37.5t-91 95.5q-59 -23 -145 -23q-101 0 -183 29q-43 -47 -88 -85.5t-53 -29.5q-6 8 -35.5 41t-52 59.5t-19.5 28.5l101 93q-74 99 -74 260q0 102 37 178q-107 103 -98 117zM350 610q0 -83 58 -133.5t122 -50.5q79 0 124.5 47t45.5 137q0 80 -42.5 137.5 t-127.5 57.5q-93 0 -136.5 -54.5t-43.5 -140.5z" />
<glyph unicode="&#xa5;" horiz-adv-x="1361" d="M53 1346q0 18 155.5 65.5t176.5 40.5q5 -3 60 -105t123.5 -237t101.5 -211h12q19 36 63 118t80 148t74 136t62 110t28 41q22 2 174.5 -42.5t153.5 -61.5q2 -25 -412 -717l217 -2q0 -6 -5.5 -64t-6.5 -61q-88 -6 -252 -8v-138l277 2q3 -1 3.5 -59.5t-1.5 -62.5l-279 -9 q0 -173 -6 -229q-5 -17 -98 -20.5t-183.5 3.5t-91.5 15q-5 60 -2 221l-262 -8q-7 3 -10 72.5t2 72.5l272 2l4 134q-186 0 -297 2q-7 3 -0.5 73.5t11.5 73.5l239 -4q-385 683 -383 709z" />
<glyph unicode="&#xa6;" horiz-adv-x="397" d="M120.5 1136.5q-0.5 361.5 6.5 370.5q7 11 44 14.5t70 2t33 -3.5v-738q-11 -2 -26.5 -4.5t-57 -7t-57.5 1.5q-12 3 -12.5 364.5zM123.5 -74q-4.5 363 1.5 373q8 11 43.5 13t67.5 -1.5t32 -5.5l6 -747l-84 -15q-54 -7 -57 4q-5 16 -9.5 379z" />
<glyph unicode="&#xa7;" horiz-adv-x="1257" d="M80 -182q-6 27 43 143t67 113q173 -70 248 -89q78 -20 144 -20q98 0 152 27t54 67q0 45 -57.5 74.5t-214.5 54.5q-430 69 -430 338q0 94 45 165t131 112q-176 90 -176 291q0 157 147.5 262.5t405.5 105.5q158 0 292.5 -28.5t201.5 -69.5q12 -8 -12.5 -72t-58.5 -124 t-44 -60q-2 1 -32.5 11.5t-62.5 20t-76.5 20.5t-97 17.5t-102.5 6.5q-190 0 -190 -88q0 -30 16.5 -48.5t70.5 -37t156 -35.5q111 -18 193.5 -43.5t151.5 -65t105 -99t36 -136.5q0 -90 -52 -163t-147 -116q95 -45 147 -109.5t52 -162.5q0 -71 -35.5 -136t-104.5 -119.5 t-186 -87t-266 -32.5t-298 36.5t-216 76.5zM403 602q0 -122 336 -160q49 4 79 36.5t30 76.5q0 49 -48 84.5t-121 54t-171 27.5q-45 -13 -75 -48t-30 -71z" />
<glyph unicode="&#xa8;" horiz-adv-x="1024" d="M131 1298q-1 72 42 117t106 45t111 -46.5t48 -106.5q0 -70 -34 -117t-107 -47q-78 0 -120.5 41.5t-45.5 113.5zM586 1298q-1 72 41.5 117t105.5 45t111.5 -46.5t48.5 -106.5q0 -70 -34 -117t-107 -47q-80 0 -122 41.5t-44 113.5z" />
<glyph unicode="&#xa9;" horiz-adv-x="1751" d="M70 688q0 212 65 373.5t181 260t267 147.5t332 49q164 0 303.5 -53.5t242 -155t160.5 -258t58 -351.5q0 -117 -28 -227.5t-89.5 -211t-150.5 -175.5t-220.5 -119.5t-289.5 -44.5q-181 0 -335 54.5t-263.5 153.5t-171 242.5t-61.5 315.5zM219 688q0 -120 36.5 -223 t100.5 -177.5t150 -127.5t187 -79t210 -26q100 0 191.5 24t171.5 74.5t139 124.5t93 180t34 234q0 104 -23.5 202.5t-73 186t-120.5 153t-173 104t-224 38.5q-150 0 -270 -37.5t-199 -101.5t-132 -153t-75.5 -187t-22.5 -209zM471 729q0 185 123 306.5t326 121.5 q96 0 170 -24t106 -54q2 -20 -29.5 -99.5t-54.5 -96.5q-91 57 -188 57q-90 0 -149.5 -62.5t-59.5 -156.5q0 -113 56 -167t140 -54q17 0 34 2.5t30.5 5.5t28 8.5t24.5 10t22 11t18 10.5l15 10t11 7q20 -12 53 -70t53 -104q-42 -47 -127 -79.5t-184 -32.5q-105 0 -186 35 t-131 96.5t-75.5 142t-25.5 176.5z" />
<glyph unicode="&#xaa;" horiz-adv-x="837" d="M59 776q0 105 84 170.5t209 65.5q93 0 154 -45q1 28 0 44.5t-8 42t-21 40t-43.5 25.5t-71.5 11q-47 0 -85 -18t-58.5 -35.5t-23.5 -17.5q-10 0 -65.5 49.5t-55.5 62.5q1 9 13.5 28.5t40 45t63.5 48t91.5 38t116.5 15.5q158 0 256.5 -90.5t98.5 -256.5q0 -122 -5 -279 t-8 -165q-2 -4 -52.5 -4t-100.5 2l-49 2l-15 68q-1 -1 -11.5 -9.5t-21.5 -17t-30.5 -20t-39.5 -19.5t-49 -14t-59 -6q-128 0 -191 65t-63 174zM272 780q0 -38 32 -64t79 -26q54 0 83.5 26.5t29.5 65.5q0 41 -32.5 66.5t-80.5 25.5q-49 0 -80 -27.5t-31 -66.5z" />
<glyph unicode="&#xab;" horiz-adv-x="1042" d="M53 616q0 9 169 243.5t177 240.5q6 4 56.5 -33.5t50.5 -42.5q0 -2 -107 -196.5t-106 -198.5q1 -3 113 -214.5t112 -217.5q0 -8 -60.5 -58.5t-64.5 -48.5t-172 259.5t-168 266.5zM506 616q0 9 169 243.5t177 240.5q6 4 56 -33.5t50 -42.5q0 -2 -107 -196.5t-106 -198.5 q1 -3 113.5 -214.5t112.5 -217.5q0 -8 -60.5 -58.5t-64.5 -48.5t-172 259.5t-168 266.5z" />
<glyph unicode="&#xac;" horiz-adv-x="1054" d="M82 584q-2 44 0 87.5t4 43.5q11 3 854 20l4 -512q0 -9 -89.5 -19.5t-90.5 -0.5q-10 70 -10 329q-159 -8 -369 -5.5t-295 12.5q-6 1 -8 45z" />
<glyph unicode="&#xad;" horiz-adv-x="815" d="M98 639.5q1 48.5 4 58.5q8 4 305 13.5t302 1.5q6 -29 5 -84t-6 -109t-8 -55l-41 -1q-41 -1 -100.5 -2.5t-131.5 -3.5t-135 -2.5t-109.5 -0.5t-55.5 2q-14 11 -22 72.5t-7 110z" />
<glyph unicode="&#xae;" horiz-adv-x="1110" d="M66 1122q0 159 69 273t180.5 168.5t251.5 54.5q211 0 344 -131.5t133 -356.5q0 -93 -29 -177t-85 -153t-149.5 -110t-211.5 -41q-225 0 -364 127t-139 346zM197 1114q0 -157 111 -253.5t267 -96.5q146 0 239 90t93 260q0 74 -20 140.5t-59 121t-104.5 87t-148.5 32.5 q-104 0 -179.5 -30.5t-117.5 -84.5t-61.5 -120t-19.5 -146zM377 907q-2 29 0 230t6 231q70 8 162 8q99 0 153 -41.5t54 -120.5q0 -94 -82 -131q22 -27 46 -61t37.5 -55.5t12.5 -22.5q-5 -8 -51.5 -27.5t-61.5 -19.5q-1 0 -16.5 25t-44 66.5t-53.5 72.5h-31q-1 -18 -1 -53.5 t-0.5 -62.5t-2.5 -36q-5 -2 -65 -3.5t-62 1.5zM514 1163q10 -2 41 -2q63 0 63 49q0 54 -69 54q-23 0 -35 -2v-99z" />
<glyph unicode="&#xaf;" horiz-adv-x="1024" d="M179.5 1260q1.5 95 8.5 98q6 4 328.5 10.5t327.5 -2.5q2 -11 -3.5 -98.5t-9.5 -87.5q-2 0 -319 -7.5t-324 -7.5q-10 0 -8.5 95z" />
<glyph unicode="&#xb0;" horiz-adv-x="788" d="M55 1137q0 163 97 246t254 83q145 0 237 -90.5t92 -242.5q0 -67 -19.5 -126t-58 -108t-103.5 -77.5t-148 -28.5q-164 0 -257.5 85t-93.5 259zM244 1122q0 -72 49 -116.5t108 -44.5q67 0 107.5 42t40.5 119q0 70 -37.5 122t-110.5 52q-81 0 -119 -50t-38 -124z" />
<glyph unicode="&#xb1;" horiz-adv-x="1136" d="M72 874l397 7v401q84 15 190 -2v-383h398q2 -166 -8 -174q-6 -6 -187.5 -17.5t-185.5 -13.5q-4 -3 -8 -252q-8 -1 -33.5 -6t-35.5 -6.5t-31 -3.5t-33.5 -1.5t-29 3t-30.5 8.5q-2 49 -5 120.5t-4.5 109t-2.5 38.5q-2 1 -185 -4.5t-188 0.5q-5 4 -10 48t-7.5 86t-0.5 42z M121 291q81 2 194.5 5t395 7t309.5 -4q2 -166 -8 -174l-871 -12q-5 5 -10.5 49t-8.5 86.5t-1 42.5z" />
<glyph unicode="&#xb2;" horiz-adv-x="778" d="M57 840q48 51 132 132.5t129 127t82.5 101.5t37.5 97t-25 69t-77 28q-87 0 -148 -76q-23 14 -77.5 82.5t-53.5 83.5q1 8 13 24.5t39 38t63 40.5t92 32.5t119 13.5q143 0 233.5 -76.5t90.5 -211.5q0 -57 -21 -112.5t-67.5 -116t-93 -109.5t-126.5 -125l2 -4l289 6 q8 -7 9.5 -65.5t-2.5 -114t-11 -54.5q-24 -2 -307 -3.5t-293 1.5q-7 5 -20 86.5t-9 104.5z" />
<glyph unicode="&#xb3;" horiz-adv-x="796" d="M43 752q-3 15 45 86t74 82q68 -64 182 -64q63 0 95 28t32 68q0 43 -37 66.5t-104 23.5h-121q-13 16 -13.5 104.5t13.5 98.5q15 0 66.5 -1t70.5 -1q43 0 77 19t34 63q0 42 -33.5 66t-81.5 24q-83 0 -145 -57q-15 0 -61.5 54t-76.5 95q114 127 318 127q145 0 236.5 -72.5 t91.5 -195.5q0 -83 -40 -139t-85 -80v-8q19 -3 42.5 -17t49 -38t42.5 -65.5t17 -90.5q0 -95 -50.5 -162.5t-129.5 -99t-176 -31.5q-118 0 -204 36.5t-128 80.5z" />
<glyph unicode="&#xb4;" horiz-adv-x="1024" d="M227 1253l459 238q9 -1 37 -46.5t50.5 -91t19.5 -46.5q-1 0 -119 -53.5t-234.5 -105t-120.5 -50.5q-16 5 -39 44t-38 75z" />
<glyph unicode="&#xb5;" horiz-adv-x="1189" d="M102 408q0 100 10 303.5t17 289.5q1 13 156 15t161 -4q2 -10 -2 -134t-9 -264t-5 -172q0 -184 156 -184q79 0 125.5 52t46.5 124q0 14 3 162.5t6.5 273t6.5 127.5q4 6 154.5 3.5t156.5 -11.5q8 -16 -10 -985q-16 -19 -153 -17t-152 17q1 23 0 66.5t0 50.5 q-16 -23 -36 -45t-53 -47.5t-78.5 -41.5t-96.5 -16q-54 0 -82 19q-1 -56 -14 -426q-293 -10 -295 8q-13 171 -13 836z" />
<glyph unicode="&#xb6;" horiz-adv-x="1286" d="M61 1032q-2 97 25 168.5t70 113.5t108.5 67t129.5 33.5t143 8.5h182l-39 -1693l-177 -8q-63 -1 -67 4q-3 127 -1 345.5t7 428.5l4 209q-66 0 -130 17t-122.5 53t-95 101.5t-37.5 151.5zM895 -274l25 1693q216 -4 223 -6q4 -2 0.5 -386.5t-7.5 -757.5t3 -539l-178 -8 q-62 -1 -66 4z" />
<glyph unicode="&#xb7;" horiz-adv-x="583" d="M70 592q0 109 63.5 168.5t181.5 52.5q83 -3 139 -54.5t56 -160.5q0 -107 -64.5 -165.5t-183.5 -55.5q-75 3 -133.5 63.5t-58.5 151.5z" />
<glyph unicode="&#xb8;" horiz-adv-x="1024" d="M334 -295q0 1 24 59.5t52.5 127t53.5 126t28 58.5q15 4 67 -8t97 -26l44 -15q-100 -371 -110 -377q-7 -3 -71.5 9.5t-125 27.5t-59.5 18z" />
<glyph unicode="&#xb9;" horiz-adv-x="628" d="M23 1460q18 18 175.5 89.5t186.5 78.5q29 -2 80.5 -13.5t62.5 -23.5q0 -881 -8 -936q-10 -4 -125.5 -7t-124.5 5q-2 101 -2 152t5 275t6 268l-6 -3t-16.5 -8t-25 -11.5t-29.5 -13t-32 -14t-30.5 -13.5t-27.5 -11.5t-20.5 -7t-11.5 -2.5q-8 1 -34.5 96t-22.5 100z" />
<glyph unicode="&#xba;" horiz-adv-x="940" d="M59 944q0 100 48 189t143.5 146.5t218.5 57.5q177 0 294.5 -111.5t117.5 -301.5q0 -105 -47.5 -193.5t-142.5 -144.5t-220 -56q-177 0 -294.5 112t-117.5 302zM301 924q0 -79 46.5 -125.5t109.5 -48.5q87 -1 133.5 45t46.5 131q0 90 -45 130t-113 40q-87 3 -132.5 -44 t-45.5 -128z" />
<glyph unicode="&#xbb;" horiz-adv-x="1028" d="M70 995q0 7 61 57t64 48q4 -2 172 -248.5t168 -255.5t-168.5 -251.5t-176.5 -248.5q-6 -4 -57 33.5t-51 42.5q0 2 107 209t106 211q-1 3 -113 200t-112 203zM508 995q0 7 61 57t64 48q4 -2 172 -248.5t168 -255.5t-168 -251.5t-176 -248.5q-6 -4 -57.5 33.5t-51.5 42.5 q0 2 107 209t106 211q-1 3 -113 200t-112 203z" />
<glyph unicode="&#xbc;" horiz-adv-x="1882" d="M45 1298q18 18 176 89.5t187 78.5q30 -2 81 -13t62 -23q0 -881 -8 -936q-10 -4 -125.5 -7t-124.5 5q-2 13 -2.5 66.5t1 137t3 161.5t3.5 179t3 150l-6 -3t-16.5 -8t-25 -11.5t-29.5 -13t-32 -14t-30.5 -13.5t-27.5 -11.5t-20.5 -7t-11.5 -2.5q-8 1 -34.5 96t-22.5 100z M449 68q1 1 177 349.5t354 695.5t185 347q18 0 89 -31t67 -47q-4 -15 -172.5 -365.5t-345 -699t-193.5 -348.5q-22 10 -93 53t-68 46zM1024 371q31 74 188 308.5t218 303.5q50 0 139 -9.5t125 -21.5l-2 -575q96 0 123 -2q3 -7 3 -55.5t-2 -93.5l-1 -44q0 -4 -132 -4 q3 -176 3 -178q-128 -19 -232 8v168q-46 -2 -194.5 -3.5t-215.5 1.5q-9 34 -16.5 101.5t-3.5 95.5zM1260 375l198 2l12 303h-8q-34 -46 -109 -157t-93 -148z" />
<glyph unicode="&#xbd;" horiz-adv-x="1863" d="M45 1298q18 18 176 89.5t187 78.5q30 -2 81 -13t62 -23q0 -881 -8 -936q-10 -4 -125.5 -7t-124.5 5q-2 13 -2.5 66.5t1 137t3 161.5t3.5 179t3 150l-6 -3t-16.5 -8t-25 -11.5t-29.5 -13t-32 -14t-30.5 -13.5t-27.5 -11.5t-20.5 -7t-11.5 -2.5q-8 1 -34.5 96t-22.5 100z M449 68q1 1 177 349.5t354 695.5t185 347q18 0 89 -31t67 -47q-4 -15 -172.5 -365.5t-345 -699t-193.5 -348.5q-22 10 -93 53t-68 46zM1133 184q47 50 132 132.5t129 127.5t81.5 101.5t37.5 97.5t-25 68.5t-77 27.5q-87 0 -147 -75q-23 14 -77.5 82t-53.5 83q1 8 13 24.5 t38.5 38.5t62.5 41t92 32.5t119 13.5q143 0 233.5 -77t90.5 -212q0 -46 -15.5 -93t-39.5 -87.5t-67 -91.5t-82.5 -91t-102.5 -100l2 -4l288 6q8 -7 9.5 -65t-2.5 -113.5t-11 -54.5q-24 -2 -307 -3.5t-293 1.5q-7 5 -19.5 86t-8.5 104z" />
<glyph unicode="&#xbe;" horiz-adv-x="2017" d="M59 596q-3 15 45 86t74 82q68 -64 182 -64q63 0 95 28t32 69q0 43 -37 66.5t-104 23.5h-121q-13 16 -13.5 104.5t13.5 98.5q15 0 66.5 -1.5t70.5 -1.5q43 0 77 19t34 63q0 42 -33.5 66.5t-81.5 24.5q-82 0 -145 -58q-10 0 -42 34.5t-55 63.5t-40 52q114 127 317 127 q145 0 236.5 -73t91.5 -196q0 -83 -40 -139t-85 -80v-8q19 -3 42.5 -17t49 -38t43 -65.5t17.5 -90.5q0 -95 -51 -163t-130 -99t-176 -31q-118 0 -204 36.5t-128 80.5zM590 68q1 1 177.5 349.5t354.5 695.5t185 347q18 0 88.5 -31t66.5 -47q-4 -15 -172.5 -365t-344.5 -699 t-193 -349q-22 10 -93.5 53t-68.5 46zM1167 371q31 74 188 308.5t218 303.5q50 0 139 -9.5t125 -21.5l-2 -575q96 0 123 -2q3 -7 3 -55.5t-1 -93.5l-2 -44q0 -4 -131 -4q2 -176 2 -178q-128 -19 -232 8v168q-46 -2 -194 -3.5t-215 1.5q-9 34 -17 101.5t-4 95.5zM1403 375 l199 2l12 303h-8q-36 -48 -110.5 -158t-92.5 -147z" />
<glyph unicode="&#xbf;" horiz-adv-x="931" d="M51 -55q0 175 105.5 277t267.5 124l12 119q117 18 240 4q9 -9 14 -92t6 -161v-79q-145 0 -228 -39t-83 -118q0 -50 42.5 -92t127.5 -42q57 0 113 15t83 30l27 15q12 -22 30.5 -56.5t47.5 -102t25 -89.5q-41 -45 -140.5 -77t-240.5 -32q-123 0 -223 44t-163 136t-63 216z M348 807q0 108 48 165.5t169 57.5q96 0 156.5 -63t60.5 -170q0 -84 -62.5 -139.5t-162.5 -55.5q-94 2 -151.5 54.5t-57.5 150.5z" />
<glyph unicode="&#xc0;" d="M29 20q33 124 237 763t217 647q14 9 222.5 15t246.5 -1q4 -1 113 -306.5t227.5 -660.5t137.5 -459q-19 -12 -112.5 -21.5t-178 -13t-88.5 -1.5q-33 77 -109 307q-22 -1 -110.5 -1t-198.5 0.5t-127 0.5q-6 -20 -31 -103.5t-42.5 -137.5t-22.5 -62q-9 -7 -186.5 7.5 t-194.5 26.5zM381 1733q-3 1 20 46.5t51 91t37 46.5q4 2 119 -57.5t228 -119.5l112 -61l-17.5 -40t-35.5 -67t-41 -48q-4 -1 -120.5 50.5t-234 105t-118.5 53.5zM561 569q140 4 340 4q-67 186 -164 537q-2 0 -6 -1t-6 -1q-109 -383 -164 -539z" />
<glyph unicode="&#xc1;" d="M29 20q33 124 237 763t217 647q14 9 222.5 15t246.5 -1q4 -1 113 -306.5t227.5 -660.5t137.5 -459q-19 -12 -112.5 -21.5t-178 -13t-88.5 -1.5q-33 77 -109 307q-22 -1 -110.5 -1t-198.5 0.5t-127 0.5q-6 -20 -31 -103.5t-42.5 -137.5t-22.5 -62q-9 -7 -186.5 7.5 t-194.5 26.5zM494 1679l458 238q9 -1 37 -46.5t50.5 -91t19.5 -46.5q-1 0 -118.5 -53.5t-234 -105t-120.5 -50.5q-16 5 -39 44t-38 75zM561 569q140 4 340 4q-67 186 -164 537q-2 0 -6 -1t-6 -1q-109 -383 -164 -539z" />
<glyph unicode="&#xc2;" d="M29 20q33 124 237 763t217 647q14 9 222.5 15t246.5 -1q4 -1 113 -306.5t227.5 -660.5t137.5 -459q-19 -12 -112.5 -21.5t-178 -13t-88.5 -1.5q-33 77 -109 307q-22 -1 -110.5 -1t-198.5 0.5t-127 0.5q-6 -20 -31 -103.5t-42.5 -137.5t-22.5 -62q-9 -7 -186.5 7.5 t-194.5 26.5zM350 1675q318 216 357 232q7 -3 96 -60.5t175 -113.5l85 -56q-57 -127 -86 -139q-3 -1 -46.5 19.5t-108 54.5t-115.5 63q-259 -144 -265 -141q-13 5 -36 40.5t-40 67.5zM561 569q140 4 340 4q-67 186 -164 537q-2 0 -6 -1t-6 -1q-109 -383 -164 -539z" />
<glyph unicode="&#xc3;" d="M29 20q33 124 237 763t217 647q14 9 222.5 15t246.5 -1q4 -1 113 -306.5t227.5 -660.5t137.5 -459q-19 -12 -112.5 -21.5t-178 -13t-88.5 -1.5q-33 77 -109 307q-22 -1 -110.5 -1t-198.5 0.5t-127 0.5q-6 -20 -31 -103.5t-42.5 -137.5t-22.5 -62q-9 -7 -186.5 7.5 t-194.5 26.5zM354 1769q34 44 88.5 75.5t120.5 31.5q40 0 84.5 -18.5t78.5 -40t77.5 -40t81.5 -18.5q31 0 60.5 14.5t40.5 24.5t38 37q12 -3 39.5 -71t30.5 -105q-3 -5 -8 -12.5t-24 -27t-41 -34.5t-59.5 -27t-78.5 -12q-51 0 -111.5 27t-119.5 54.5t-105 27.5 q-66 0 -137 -66q-11 -9 -43 119q-13 50 -13 61zM561 569q140 4 340 4q-67 186 -164 537q-2 0 -6 -1t-6 -1q-109 -383 -164 -539z" />
<glyph unicode="&#xc4;" d="M29 20q33 124 237 763t217 647q14 9 222.5 15t246.5 -1q4 -1 113 -306.5t227.5 -660.5t137.5 -459q-19 -12 -112.5 -21.5t-178 -13t-88.5 -1.5q-33 77 -109 307q-22 -1 -110.5 -1t-198.5 0.5t-127 0.5q-6 -20 -31 -103.5t-42.5 -137.5t-22.5 -62q-9 -7 -186.5 7.5 t-194.5 26.5zM342 1724q-1 72 41.5 117t105.5 45t111.5 -46.5t48.5 -106.5q0 -70 -34 -117t-107 -47q-78 0 -120.5 41.5t-45.5 113.5zM561 569q140 4 340 4q-67 186 -164 537q-2 0 -6 -1t-6 -1q-109 -383 -164 -539zM797 1724q-1 72 41.5 117t105.5 45t111.5 -46.5 t48.5 -106.5q0 -70 -34 -117t-107 -47q-80 0 -122 41.5t-44 113.5z" />
<glyph unicode="&#xc5;" d="M29 20q33 124 237 763t217 647q14 9 222.5 15t246.5 -1q4 -1 113 -306.5t227.5 -660.5t137.5 -459q-19 -12 -112.5 -21.5t-178 -13t-88.5 -1.5q-33 77 -109 307q-22 -1 -110.5 -1t-198.5 0.5t-127 0.5q-6 -20 -31 -103.5t-42.5 -137.5t-22.5 -62q-9 -7 -186.5 7.5 t-194.5 26.5zM510 1700q0 99 61 147.5t158 48.5q88 0 145.5 -53.5t57.5 -144.5q0 -84 -52 -143.5t-151 -59.5q-102 0 -160.5 52t-58.5 153zM561 569q140 4 340 4q-67 186 -164 537q-2 0 -6 -1t-6 -1q-109 -383 -164 -539zM639 1694q0 -33 27 -53.5t59 -20.5q34 0 55 19 t21 55q0 31 -20 54.5t-56 23.5q-44 0 -65 -22.5t-21 -55.5z" />
<glyph unicode="&#xc6;" horiz-adv-x="1941" d="M-10 20q58 145 347 777t306 633q72 14 640 16.5t583 -10.5q14 -12 16.5 -77.5t-2 -129.5t-10.5 -105q-44 -5 -275.5 -5.5t-357.5 3.5l4 -250q149 2 308 -1.5t169 -10.5q6 -5 8.5 -36t2 -73.5t-2 -82.5t-2.5 -72l-2 -31q0 -7 -167.5 -8t-315.5 4v-262q483 10 604 2 q10 -53 9 -166t-9 -141q8 -5 -197.5 -7.5t-447 0t-317.5 9.5q-4 118 -4 293h-357q-11 -23 -46.5 -104t-61 -136t-33.5 -63q-9 -7 -191 7.5t-198 26.5zM612 569q17 1 61.5 1.5t106 1t99.5 1.5q0 67 6 553l-15 2z" />
<glyph unicode="&#xc7;" horiz-adv-x="1329" d="M66 727q0 154 53 287.5t149.5 231.5t239 154t313.5 56q163 0 289 -41t180 -94q0 -35 -51 -155t-86 -150q-169 98 -328 98t-266.5 -113.5t-107.5 -287.5q0 -106 30.5 -187t82 -128.5t112.5 -71t129 -23.5q47 0 94 10.5t77 21.5t68 33.5t48 29.5t36 26q31 -22 84 -110 t86 -158q-63 -73 -192 -129t-279 -66q-84 -294 -88 -297q-7 -3 -72 10t-126 28.5t-60 18.5q0 1 16.5 41t43.5 105.5t45 112.5q-171 35 -290 142.5t-174.5 261t-55.5 343.5z" />
<glyph unicode="&#xc8;" horiz-adv-x="1191" d="M131 670.5q5 545.5 14 759.5q141 9 549 11.5t424 -5.5q10 -27 11 -144.5t-7 -167.5q-44 -5 -276 -5.5t-359 3.5l5 -250q150 2 309.5 -1.5t167.5 -10.5q5 -4 8 -27.5t3.5 -55t0 -69t-2 -67.5t-2.5 -52.5t-1 -23.5q0 -7 -168.5 -8t-314.5 4q0 -154 -3 -262q145 3 350 4 t255 -2q11 -54 10.5 -166t-8.5 -141q8 -5 -197.5 -7.5t-447.5 0t-318 9.5q-7 129 -2 674.5zM301 1733q-3 1 20 46.5t51.5 91t37.5 46.5q4 2 118.5 -57.5t227.5 -119.5l112 -61l-17.5 -40t-35.5 -67t-41 -48q-4 -1 -120.5 50.5t-234 105t-118.5 53.5z" />
<glyph unicode="&#xc9;" horiz-adv-x="1191" d="M131 670.5q5 545.5 14 759.5q141 9 549 11.5t424 -5.5q10 -27 11 -144.5t-7 -167.5q-44 -5 -276 -5.5t-359 3.5l5 -250q150 2 309.5 -1.5t167.5 -10.5q5 -4 8 -27.5t3.5 -55t0 -69t-2 -67.5t-2.5 -52.5t-1 -23.5q0 -7 -168.5 -8t-314.5 4q0 -154 -3 -262q145 3 350 4 t255 -2q11 -54 10.5 -166t-8.5 -141q8 -5 -197.5 -7.5t-447.5 0t-318 9.5q-7 129 -2 674.5zM356 1679l459 238q9 -1 37 -46.5t50.5 -91t19.5 -46.5q-1 0 -118.5 -53.5t-234 -105t-120.5 -50.5q-16 5 -39 44t-38 75z" />
<glyph unicode="&#xca;" horiz-adv-x="1191" d="M131 670.5q5 545.5 14 759.5q141 9 549 11.5t424 -5.5q10 -27 11 -144.5t-7 -167.5q-44 -5 -276 -5.5t-359 3.5l5 -250q150 2 309.5 -1.5t167.5 -10.5q5 -4 8 -27.5t3.5 -55t0 -69t-2 -67.5t-2.5 -52.5t-1 -23.5q0 -7 -168.5 -8t-314.5 4q0 -154 -3 -262q145 3 350 4 t255 -2q11 -54 10.5 -166t-8.5 -141q8 -5 -197.5 -7.5t-447.5 0t-318 9.5q-7 129 -2 674.5zM270 1675q318 216 357 232q7 -3 96 -60.5t175 -113.5l85 -56q-57 -127 -86 -139q-3 -1 -46.5 19.5t-108 54.5t-115.5 63q-259 -144 -265 -141q-13 5 -36 40.5t-40 67.5z" />
<glyph unicode="&#xcb;" horiz-adv-x="1191" d="M131 670.5q5 545.5 14 759.5q141 9 549 11.5t424 -5.5q10 -27 11 -144.5t-7 -167.5q-44 -5 -276 -5.5t-359 3.5l5 -250q150 2 309.5 -1.5t167.5 -10.5q5 -4 8 -27.5t3.5 -55t0 -69t-2 -67.5t-2.5 -52.5t-1 -23.5q0 -7 -168.5 -8t-314.5 4q0 -154 -3 -262q145 3 350 4 t255 -2q11 -54 10.5 -166t-8.5 -141q8 -5 -197.5 -7.5t-447.5 0t-318 9.5q-7 129 -2 674.5zM250 1724q-1 72 41.5 117t105.5 45t111.5 -46.5t48.5 -106.5q0 -70 -34 -117t-107 -47q-78 0 -120.5 41.5t-45.5 113.5zM705 1724q-1 72 41.5 117t105.5 45t111.5 -46.5 t48.5 -106.5q0 -70 -34.5 -117t-107.5 -47q-80 0 -121.5 41.5t-43.5 113.5z" />
<glyph unicode="&#xcc;" horiz-adv-x="649" d="M33 1733q-3 1 20 46.5t51 91t37 46.5q4 2 119 -57.5t228 -119.5l112 -61l-17.5 -40t-35.5 -67t-41 -48q-4 -1 -120.5 50.5t-234 105t-118.5 53.5zM131 687q-1 566 10 734q51 17 202.5 16t162.5 -12q10 -65 9.5 -695.5t-11.5 -729.5q-9 -25 -186 -23t-179 15 q-7 129 -8 695z" />
<glyph unicode="&#xcd;" horiz-adv-x="649" d="M39 1679l459 238q9 -1 36.5 -46.5t50 -91t19.5 -46.5q-1 0 -118.5 -53.5t-234 -105t-120.5 -50.5q-16 5 -39 44t-38 75zM131 687q-1 566 10 734q51 17 202.5 16t162.5 -12q10 -65 9.5 -695.5t-11.5 -729.5q-9 -25 -186 -23t-179 15q-7 129 -8 695z" />
<glyph unicode="&#xce;" horiz-adv-x="649" d="M-33 1675q318 216 357 232q7 -3 96 -60.5t174 -113.5l86 -56q-57 -127 -86 -139q-3 -1 -46.5 19.5t-108 54.5t-115.5 63q-259 -144 -265 -141q-13 5 -36 40.5t-39 67.5zM131 687q-1 566 10 734q51 17 202.5 16t162.5 -12q10 -65 9.5 -695.5t-11.5 -729.5q-9 -25 -186 -23 t-179 15q-7 129 -8 695z" />
<glyph unicode="&#xcf;" horiz-adv-x="649" d="M-57 1724q-1 72 41.5 117t105.5 45t111.5 -46.5t48.5 -106.5q0 -70 -34 -117t-107 -47q-78 0 -120.5 41.5t-45.5 113.5zM131 687q-1 566 10 734q51 17 202.5 16t162.5 -12q10 -65 9.5 -695.5t-11.5 -729.5q-9 -25 -186 -23t-179 15q-7 129 -8 695zM397 1724q-1 72 42 117 t106 45t111.5 -46.5t48.5 -106.5q0 -70 -34.5 -117t-107.5 -47q-80 0 -122 41.5t-44 113.5z" />
<glyph unicode="&#xd0;" horiz-adv-x="1445" d="M32.5 696q1.5 95 6.5 99l13 1q13 0 38.5 1t52.5 2q8 546 17 626q67 17 448 17q176 0 322 -55t244 -152t152 -230.5t54 -289.5q0 -164 -45.5 -296.5t-138.5 -232.5t-247 -154.5t-359 -54.5q-129 0 -270 9t-175 20q-4 53 -4 596q-57 -2 -102 -2q-8 1 -6.5 96zM498 319 q47 -8 129 -8q374 0 374 385q0 181 -109.5 293.5t-279.5 112.5q-54 0 -108 -4q0 -191 -2 -291q188 4 192 -4q3 -11 -1.5 -100t-8.5 -89q-1 0 -24.5 -0.5t-69 -1.5t-88.5 -2q-4 -102 -4 -291z" />
<glyph unicode="&#xd1;" horiz-adv-x="1513" d="M129.5 704.5q-1.5 598.5 9.5 712.5q5 25 168 30.5t170 -7.5q38 -58 115 -177.5t214 -343t214 -364.5q2 134 0 345.5t-3 316.5t3 196q53 13 198.5 12.5t155.5 -10.5q10 -3 5 -653t-19 -748q-5 -25 -162.5 -32.5t-175.5 6.5q-17 21 -104.5 159.5t-217.5 346t-211 331.5 q0 -121 5 -426.5t2 -390.5q-54 -14 -204 -14.5t-153 14.5q-8 98 -9.5 696.5zM381 1769q34 44 88.5 75.5t120.5 31.5q40 0 84.5 -18.5t78 -40t77 -40t81.5 -18.5q31 0 61 14.5t41.5 25t37.5 36.5q12 -3 39 -70.5t30 -105.5q-3 -5 -8 -12.5t-24 -27t-41 -34.5t-59.5 -27 t-78.5 -12q-51 0 -111.5 27t-119.5 54.5t-105 27.5q-66 0 -137 -66q-11 -9 -43 119q-12 50 -12 61z" />
<glyph unicode="&#xd2;" horiz-adv-x="1542" d="M63 727q0 113 27.5 219t85.5 199.5t139.5 163.5t197.5 110.5t253 40.5q325 0 518 -205.5t193 -560.5q0 -111 -26 -215.5t-82 -199t-137 -165t-199.5 -112t-260.5 -41.5q-215 0 -376.5 96t-247 269.5t-85.5 400.5zM442 707q0 -176 88.5 -293t233.5 -117q160 0 240.5 113 t80.5 311q0 199 -85.5 302t-227.5 103q-156 0 -243 -113t-87 -306zM451 1733q-3 1 20 46.5t51 91t37 46.5q4 2 119 -57.5t228 -119.5l112 -61l-17.5 -40t-35.5 -67t-41 -48q-4 -1 -120.5 50.5t-234 105t-118.5 53.5z" />
<glyph unicode="&#xd3;" horiz-adv-x="1542" d="M63 727q0 113 27.5 219t85.5 199.5t139.5 163.5t197.5 110.5t253 40.5q325 0 518 -205.5t193 -560.5q0 -111 -26 -215.5t-82 -199t-137 -165t-199.5 -112t-260.5 -41.5q-215 0 -376.5 96t-247 269.5t-85.5 400.5zM442 707q0 -176 88.5 -293t233.5 -117q160 0 240.5 113 t80.5 311q0 199 -85.5 302t-227.5 103q-156 0 -243 -113t-87 -306zM549 1679l459 238q9 -1 36.5 -46.5t50 -91t19.5 -46.5q-1 0 -118.5 -53.5t-234 -105t-120.5 -50.5q-16 5 -39 44t-38 75z" />
<glyph unicode="&#xd4;" horiz-adv-x="1542" d="M63 727q0 113 27.5 219t85.5 199.5t139.5 163.5t197.5 110.5t253 40.5q325 0 518 -205.5t193 -560.5q0 -111 -26 -215.5t-82 -199t-137 -165t-199.5 -112t-260.5 -41.5q-215 0 -376.5 96t-247 269.5t-85.5 400.5zM418 1675q317 216 356 232q7 -3 96 -60.5t174 -113.5 l86 -56q-57 -127 -86 -139q-3 -1 -46.5 19.5t-108 54.5t-115.5 63q-258 -144 -264 -141q-13 5 -36 40.5t-40 67.5zM442 707q0 -176 88.5 -293t233.5 -117q160 0 240.5 113t80.5 311q0 199 -85.5 302t-227.5 103q-156 0 -243 -113t-87 -306z" />
<glyph unicode="&#xd5;" horiz-adv-x="1542" d="M63 727q0 113 27.5 219t85.5 199.5t139.5 163.5t197.5 110.5t253 40.5q325 0 518 -205.5t193 -560.5q0 -111 -26 -215.5t-82 -199t-137 -165t-199.5 -112t-260.5 -41.5q-215 0 -376.5 96t-247 269.5t-85.5 400.5zM403 1769q34 44 88.5 75.5t120.5 31.5q40 0 84.5 -18.5 t78.5 -40t77.5 -40t81.5 -18.5q31 0 60.5 14.5t40.5 24.5t38 37q12 -3 39.5 -71t30.5 -105q-3 -5 -8 -12.5t-24 -27t-41 -34.5t-59.5 -27t-78.5 -12q-51 0 -111.5 27t-119.5 54.5t-105 27.5q-66 0 -137 -66q-11 -9 -43 119q-13 50 -13 61zM442 707q0 -176 88.5 -293 t233.5 -117q160 0 240.5 113t80.5 311q0 199 -85.5 302t-227.5 103q-156 0 -243 -113t-87 -306z" />
<glyph unicode="&#xd6;" horiz-adv-x="1542" d="M63 727q0 113 27.5 219t85.5 199.5t139.5 163.5t197.5 110.5t253 40.5q325 0 518 -205.5t193 -560.5q0 -111 -26 -215.5t-82 -199t-137 -165t-199.5 -112t-260.5 -41.5q-215 0 -376.5 96t-247 269.5t-85.5 400.5zM393 1724q-1 72 42 117t106 45t111 -46.5t48 -106.5 q0 -70 -34 -117t-107 -47q-78 0 -120.5 41.5t-45.5 113.5zM442 707q0 -176 88.5 -293t233.5 -117q160 0 240.5 113t80.5 311q0 199 -85.5 302t-227.5 103q-156 0 -243 -113t-87 -306zM848 1724q-1 72 41.5 117t105.5 45t111.5 -46.5t48.5 -106.5q0 -70 -34 -117t-107 -47 q-80 0 -122 41.5t-44 113.5z" />
<glyph unicode="&#xd7;" horiz-adv-x="993" d="M72 281l295 315l-285 283q49 72 137 133l270 -271l279 281q119 -117 119 -129q-1 -8 -120.5 -144t-121.5 -141q-1 -5 142 -151.5t143 -149.5q0 -9 -59 -72.5t-72 -56.5q-8 5 -85 77t-151 141t-76 69q-3 -1 -136 -148.5t-140 -148.5q-6 0 -41.5 27.5t-67.5 55.5t-30 30z " />
<glyph unicode="&#xd8;" horiz-adv-x="1540" d="M63 727q0 113 27.5 219t85.5 199.5t139.5 163.5t197.5 110.5t253 40.5q199 0 360 -90q89 123 93 123l144 -66q48 -24 46 -28l-113 -160q181 -200 181 -545q0 -111 -26 -215.5t-82 -199t-137 -165t-199.5 -112t-260.5 -41.5q-195 0 -350 84q-91 -119 -98 -115 q-43 19 -112.5 60t-64.5 57q40 51 99 133q-183 208 -183 547zM442 707q0 -119 45 -199q50 69 202 273t226 306q-64 39 -143 39q-156 0 -243 -113t-87 -306zM637 334q56 -37 127 -37q160 0 240.5 113t80.5 311q0 106 -34 178q-120 -167 -414 -565z" />
<glyph unicode="&#xd9;" horiz-adv-x="1464" d="M115 586q0 182 9 467t21 360q6 24 181.5 21.5t181.5 -15.5q4 -16 -0.5 -165t-11.5 -345t-7 -280q0 -164 57.5 -235.5t178.5 -71.5q238 0 238 299q0 150 -7.5 467.5t-7.5 347.5q21 14 201 20.5t184 -8.5q6 -26 11.5 -335.5t5.5 -514.5q0 -637 -619 -637q-616 0 -616 625z M367 1733q-3 1 20 46.5t51 91t37 46.5q4 2 119 -57.5t228 -119.5l112 -61l-17.5 -40t-35.5 -67t-41 -48q-4 -1 -120.5 50.5t-234 105t-118.5 53.5z" />
<glyph unicode="&#xda;" horiz-adv-x="1464" d="M115 586q0 182 9 467t21 360q6 24 181.5 21.5t181.5 -15.5q4 -16 -0.5 -165t-11.5 -345t-7 -280q0 -164 57.5 -235.5t178.5 -71.5q238 0 238 299q0 150 -7.5 467.5t-7.5 347.5q21 14 201 20.5t184 -8.5q6 -26 11.5 -335.5t5.5 -514.5q0 -637 -619 -637q-616 0 -616 625z M543 1679l458 238q9 -1 37 -46.5t50.5 -91t19.5 -46.5q-1 0 -118.5 -53.5t-234 -105t-120.5 -50.5q-16 5 -39 44t-38 75z" />
<glyph unicode="&#xdb;" horiz-adv-x="1464" d="M115 586q0 182 9 467t21 360q6 24 181.5 21.5t181.5 -15.5q4 -16 -0.5 -165t-11.5 -345t-7 -280q0 -164 57.5 -235.5t178.5 -71.5q238 0 238 299q0 150 -7.5 467.5t-7.5 347.5q21 14 201 20.5t184 -8.5q6 -26 11.5 -335.5t5.5 -514.5q0 -637 -619 -637q-616 0 -616 625z M371 1675q317 216 356 232q7 -3 96 -60.5t175 -113.5l85 -56q-57 -127 -86 -139q-3 -1 -46.5 19.5t-108 54.5t-115.5 63q-258 -144 -264 -141q-13 5 -36 40.5t-39 67.5z" />
<glyph unicode="&#xdc;" horiz-adv-x="1464" d="M115 586q0 182 9 467t21 360q6 24 181.5 21.5t181.5 -15.5q4 -16 -0.5 -165t-11.5 -345t-7 -280q0 -164 57.5 -235.5t178.5 -71.5q238 0 238 299q0 150 -7.5 467.5t-7.5 347.5q21 14 201 20.5t184 -8.5q6 -26 11.5 -335.5t5.5 -514.5q0 -637 -619 -637q-616 0 -616 625z M342 1724q-1 72 41.5 117t105.5 45t111.5 -46.5t48.5 -106.5q0 -70 -34 -117t-107 -47q-78 0 -120.5 41.5t-45.5 113.5zM797 1724q-1 72 41.5 117t105.5 45t111.5 -46.5t48.5 -106.5q0 -70 -34 -117t-107 -47q-80 0 -122 41.5t-44 113.5z" />
<glyph unicode="&#xdd;" horiz-adv-x="1288" d="M23 1346q1 18 156.5 65.5t176.5 40.5q5 -3 60 -105t123.5 -237t101.5 -211h12q18 33 63.5 117.5t80.5 149t74 135.5t62.5 110.5t27.5 40.5q22 2 174 -42.5t153 -61.5q0 -8 -40.5 -80.5t-107 -187t-124 -211.5t-121 -204.5t-68.5 -115.5q4 -472 -6 -549 q-5 -17 -97.5 -20.5t-182.5 3.5t-90 15q-2 27 -3 70t0 104.5t2 113.5t2.5 135t2.5 132q-7 13 -67.5 120t-114.5 204t-115.5 208.5t-98.5 182.5t-36 78zM455 1679l458 238q9 -1 37 -46.5t50.5 -91t19.5 -46.5q-1 0 -118.5 -53.5t-234 -105t-120.5 -50.5q-16 5 -39 44t-38 75z " />
<glyph unicode="&#xde;" horiz-adv-x="1282" d="M132 699q0 623 13 722q18 2 97.5 3.5t169.5 3t112 2.5q3 0 1 -98.5t1 -98.5q87 6 144 6q275 0 427 -133.5t152 -374.5q0 -270 -153 -395t-453 -125q-19 0 -59.5 1t-51.5 1q0 -26 -0.5 -61t-0.5 -49t-1 -33.5t-1.5 -29t-2 -20t-4.5 -20.5q-6 -10 -193 -12.5t-188 6.5 q-9 82 -9 705zM522 532q74 -4 144 -4q103 0 165 45t62 136q0 83 -47 133t-146 57q-50 4 -73 4q-6 0 -46.5 -2t-58.5 -4v-365z" />
<glyph unicode="&#xdf;" horiz-adv-x="1241" d="M104 979q0 109 31.5 200.5t94 161t163 109t230.5 39.5q121 0 221 -33.5t164 -90.5t98.5 -130t34.5 -154q0 -66 -25.5 -126.5t-55.5 -96t-55.5 -71t-25.5 -58.5q0 -18 23 -41t55.5 -50t65.5 -61t56 -87.5t23 -116.5q0 -91 -33.5 -163t-83 -116t-120 -76t-130.5 -46 t-128 -23q-90 155 -113 268q116 15 169.5 50t53.5 116q0 31 -19.5 63.5t-47 61t-55 58.5t-47 69t-19.5 80q0 43 17 83t41 70.5t48 59t41 60.5t17 63q0 59 -49.5 100t-127.5 41q-80 0 -127.5 -52.5t-48.5 -154.5q-5 -120 -4.5 -369t3 -400t-0.5 -206q-11 -1 -30.5 -2.5 t-70 -5t-91.5 -5t-79.5 -0.5t-49.5 7q-3 3 -8 414t-5 561z" />
<glyph unicode="&#xe0;" horiz-adv-x="1021" d="M51 295q0 135 105 218t262 83q116 0 190 -55q2 22 0 46t-4.5 47.5t-14.5 44t-30.5 36.5t-51.5 25.5t-77 9.5t-83 -14.5t-60.5 -31.5t-39 -31.5t-22.5 -15.5q-15 0 -86.5 65t-70.5 81q1 12 17 37t50.5 58t80.5 62t116 49.5t147 20.5q199 0 325 -116t126 -332 q0 -160 -6 -361.5t-11 -210.5q-3 -5 -69 -5t-130 3l-65 2l-18 88q-112 -112 -262 -112q-160 0 -239 84t-79 225zM217 1307q-3 1 20 46.5t51.5 91t37.5 46.5q4 2 118.5 -57.5t227.5 -119.5l112 -61l-17.5 -40t-35.5 -67t-41 -48q-4 -1 -120.5 50.5t-234 105t-118.5 53.5z M326 301q0 -51 38 -83t95 -32q64 0 99.5 33t35.5 82q0 53 -38.5 85t-96.5 32q-59 0 -96 -33.5t-37 -83.5z" />
<glyph unicode="&#xe1;" horiz-adv-x="1021" d="M51 295q0 135 105 218t262 83q116 0 190 -55q2 22 0 46t-4.5 47.5t-14.5 44t-30.5 36.5t-51.5 25.5t-77 9.5t-83 -14.5t-60.5 -31.5t-39 -31.5t-22.5 -15.5q-15 0 -86.5 65t-70.5 81q1 12 17 37t50.5 58t80.5 62t116 49.5t147 20.5q199 0 325 -116t126 -332 q0 -160 -6 -361.5t-11 -210.5q-3 -5 -69 -5t-130 3l-65 2l-18 88q-112 -112 -262 -112q-160 0 -239 84t-79 225zM254 1253l459 238q9 -1 36.5 -46.5t50 -91t19.5 -46.5q-1 0 -118.5 -53.5t-234 -105t-120.5 -50.5q-16 5 -39 44t-38 75zM326 301q0 -51 38 -83t95 -32 q64 0 99.5 33t35.5 82q0 53 -38.5 85t-96.5 32q-59 0 -96 -33.5t-37 -83.5z" />
<glyph unicode="&#xe2;" horiz-adv-x="1021" d="M51 295q0 135 105 218t262 83q116 0 190 -55q2 22 0 46t-4.5 47.5t-14.5 44t-30.5 36.5t-51.5 25.5t-77 9.5t-83 -14.5t-60.5 -31.5t-39 -31.5t-22.5 -15.5q-15 0 -86.5 65t-70.5 81q1 12 17 37t50.5 58t80.5 62t116 49.5t147 20.5q199 0 325 -116t126 -332 q0 -160 -6 -361.5t-11 -210.5q-3 -5 -69 -5t-130 3l-65 2l-18 88q-112 -112 -262 -112q-160 0 -239 84t-79 225zM164 1249q317 216 356 232q7 -3 96.5 -60.5t175.5 -113.5l85 -56q-57 -127 -86 -139q-3 -1 -47 19.5t-108.5 54.5t-115.5 63q-258 -144 -264 -141 q-13 5 -36 40.5t-40 67.5zM326 301q0 -51 38 -83t95 -32q64 0 99.5 33t35.5 82q0 53 -38.5 85t-96.5 32q-59 0 -96 -33.5t-37 -83.5z" />
<glyph unicode="&#xe3;" horiz-adv-x="1021" d="M51 295q0 135 105 218t262 83q116 0 190 -55q2 22 0 46t-4.5 47.5t-14.5 44t-30.5 36.5t-51.5 25.5t-77 9.5t-83 -14.5t-60.5 -31.5t-39 -31.5t-22.5 -15.5q-15 0 -86.5 65t-70.5 81q1 12 17 37t50.5 58t80.5 62t116 49.5t147 20.5q199 0 325 -116t126 -332 q0 -160 -6 -361.5t-11 -210.5q-3 -5 -69 -5t-130 3l-65 2l-18 88q-112 -112 -262 -112q-160 0 -239 84t-79 225zM150 1343q34 44 88 75.5t120 31.5q40 0 84.5 -18.5t78.5 -40t77.5 -40t81.5 -18.5q31 0 60.5 14.5t40.5 24.5t38 37q12 -3 39.5 -71t30.5 -105q-3 -5 -8 -12.5 t-24 -27t-41 -34.5t-59.5 -27t-78.5 -12q-51 0 -111.5 27t-119.5 54.5t-105 27.5q-66 0 -137 -66q-11 -9 -43 119q-12 50 -12 61zM326 301q0 -51 38 -83t95 -32q64 0 99.5 33t35.5 82q0 53 -38.5 85t-96.5 32q-59 0 -96 -33.5t-37 -83.5z" />
<glyph unicode="&#xe4;" horiz-adv-x="1021" d="M51 295q0 135 105 218t262 83q116 0 190 -55q2 22 0 46t-4.5 47.5t-14.5 44t-30.5 36.5t-51.5 25.5t-77 9.5t-83 -14.5t-60.5 -31.5t-39 -31.5t-22.5 -15.5q-15 0 -86.5 65t-70.5 81q1 12 17 37t50.5 58t80.5 62t116 49.5t147 20.5q199 0 325 -116t126 -332 q0 -160 -6 -361.5t-11 -210.5q-3 -5 -69 -5t-130 3l-65 2l-18 88q-112 -112 -262 -112q-160 0 -239 84t-79 225zM139 1298q-1 72 42 117t106 45t111 -46.5t48 -106.5q0 -70 -34 -117t-107 -47q-78 0 -120.5 41.5t-45.5 113.5zM326 301q0 -51 38 -83t95 -32q64 0 99.5 33 t35.5 82q0 53 -38.5 85t-96.5 32q-59 0 -96 -33.5t-37 -83.5zM594 1298q-1 72 41.5 117t105.5 45t111.5 -46.5t48.5 -106.5q0 -70 -34 -117t-107 -47q-80 0 -122 41.5t-44 113.5z" />
<glyph unicode="&#xe5;" horiz-adv-x="1021" d="M51 295q0 135 105 218t262 83q116 0 190 -55q2 22 0 46t-4.5 47.5t-14.5 44t-30.5 36.5t-51.5 25.5t-77 9.5t-83 -14.5t-60.5 -31.5t-39 -31.5t-22.5 -15.5q-15 0 -86.5 65t-70.5 81q1 12 17 37t50.5 58t80.5 62t116 49.5t147 20.5q199 0 325 -116t126 -332 q0 -160 -6 -361.5t-11 -210.5q-3 -5 -69 -5t-130 3l-65 2l-18 88q-112 -112 -262 -112q-160 0 -239 84t-79 225zM311 1319q0 99 61 148t158 49q87 0 145 -54t58 -145q0 -84 -52 -143.5t-151 -59.5q-102 0 -160.5 52t-58.5 153zM326 301q0 -51 38 -83t95 -32q64 0 99.5 33 t35.5 82q0 53 -38.5 85t-96.5 32q-59 0 -96 -33.5t-37 -83.5zM440 1313q0 -33 27 -53.5t59 -20.5q34 0 55 19t21 55q0 31 -20 54.5t-56 23.5q-44 0 -65 -22.5t-21 -55.5z" />
<glyph unicode="&#xe6;" horiz-adv-x="1738" d="M51 295q0 135 105 218t262 83q116 0 190 -55q2 22 0 46t-4.5 47.5t-14.5 44t-30.5 36.5t-51.5 25.5t-77 9.5t-83 -14.5t-60.5 -31.5t-39 -31.5t-22.5 -15.5q-15 0 -86.5 65t-70.5 81q1 12 17 37t50.5 58t80.5 62t116 49.5t147 20.5q130 0 231.5 -51.5t157.5 -149.5 q64 90 162.5 140.5t224.5 50.5q132 0 233.5 -61t153.5 -159t52 -214q0 -93 -19 -158q-69 -9 -290 -11.5t-306 1.5q0 -83 57 -129.5t162 -46.5q126 0 240 71q16 -16 61 -107.5t46 -113.5q-48 -44 -148.5 -80.5t-214.5 -36.5q-226 0 -362 123q-3 -84 -7 -88q-3 -5 -69 -5 t-130 3l-65 2l-18 88q-112 -112 -262 -112q-160 0 -239 84t-79 225zM326 301q0 -51 38 -83t95 -32q64 0 99.5 33t35.5 82q0 53 -38.5 85t-96.5 32q-59 0 -96 -33.5t-37 -83.5zM1077 606l322 6q3 78 -36 128.5t-110 50.5q-78 0 -127 -53t-49 -132z" />
<glyph unicode="&#xe7;" horiz-adv-x="983" d="M53 508q0 97 37 189t103.5 164t168.5 115.5t222 43.5q98 0 184.5 -24t127 -48t44.5 -37q6 -24 -28.5 -143t-59.5 -127q-4 -1 -39 21.5t-92 45.5t-109 23q-111 0 -173 -61t-62 -178q0 -56 15.5 -99.5t38 -67.5t54.5 -39.5t59.5 -20.5t57.5 -5q26 0 55 6t55.5 16.5 t45.5 19.5t38.5 20t22.5 12q13 4 52.5 -65t70.5 -134q-34 -55 -105.5 -96.5t-160.5 -56.5q-90 -326 -98 -332q-7 -3 -71.5 9.5t-125 27.5t-59.5 18q0 12 116 285q-99 22 -175 75t-121 124.5t-67 152t-22 166.5z" />
<glyph unicode="&#xe8;" horiz-adv-x="1032" d="M55 485q0 105 32.5 200.5t93 170.5t156 119.5t212.5 44.5q99 0 182.5 -35.5t139 -95.5t86 -138.5t30.5 -164.5q0 -96 -18 -158q-69 -9 -290 -11.5t-306 1.5q0 -83 57 -129.5t162 -46.5q125 0 239 71q16 -16 61 -107.5t46 -113.5q-48 -44 -148.5 -80.5t-214.5 -36.5 q-134 0 -237 42.5t-163 115t-90 161.5t-30 191zM248 1307q-3 1 20 46.5t51 91t37 46.5q4 2 119 -57.5t227 -119.5l113 -61l-17.5 -40t-35.5 -67t-41 -48q-4 -1 -120.5 50.5t-234 105t-118.5 53.5zM371 606l321 6q3 78 -35.5 128.5t-109.5 50.5q-78 0 -127 -53t-49 -132z" />
<glyph unicode="&#xe9;" horiz-adv-x="1032" d="M55 485q0 105 32.5 200.5t93 170.5t156 119.5t212.5 44.5q99 0 182.5 -35.5t139 -95.5t86 -138.5t30.5 -164.5q0 -96 -18 -158q-69 -9 -290 -11.5t-306 1.5q0 -83 57 -129.5t162 -46.5q125 0 239 71q16 -16 61 -107.5t46 -113.5q-48 -44 -148.5 -80.5t-214.5 -36.5 q-134 0 -237 42.5t-163 115t-90 161.5t-30 191zM272 1253l459 238q9 -1 37 -46.5t50.5 -91t19.5 -46.5q-1 0 -118.5 -53.5t-234 -105t-120.5 -50.5q-16 5 -39 44t-38 75zM371 606l321 6q3 78 -35.5 128.5t-109.5 50.5q-78 0 -127 -53t-49 -132z" />
<glyph unicode="&#xea;" horiz-adv-x="1032" d="M55 485q0 105 32.5 200.5t93 170.5t156 119.5t212.5 44.5q99 0 182.5 -35.5t139 -95.5t86 -138.5t30.5 -164.5q0 -96 -18 -158q-69 -9 -290 -11.5t-306 1.5q0 -83 57 -129.5t162 -46.5q125 0 239 71q16 -16 61 -107.5t46 -113.5q-48 -44 -148.5 -80.5t-214.5 -36.5 q-134 0 -237 42.5t-163 115t-90 161.5t-30 191zM197 1249q317 216 356 232q7 -3 96 -60.5t175 -113.5l85 -56q-57 -127 -86 -139q-3 -1 -46.5 19.5t-108 54.5t-115.5 63q-258 -144 -264 -141q-13 5 -36 40.5t-39 67.5zM371 606l321 6q3 78 -35.5 128.5t-109.5 50.5 q-78 0 -127 -53t-49 -132z" />
<glyph unicode="&#xeb;" horiz-adv-x="1032" d="M55 485q0 105 32.5 200.5t93 170.5t156 119.5t212.5 44.5q99 0 182.5 -35.5t139 -95.5t86 -138.5t30.5 -164.5q0 -96 -18 -158q-69 -9 -290 -11.5t-306 1.5q0 -83 57 -129.5t162 -46.5q125 0 239 71q16 -16 61 -107.5t46 -113.5q-48 -44 -148.5 -80.5t-214.5 -36.5 q-134 0 -237 42.5t-163 115t-90 161.5t-30 191zM170 1298q-1 72 41.5 117t105.5 45t111.5 -46.5t48.5 -106.5q0 -70 -34 -117t-107 -47q-78 0 -120.5 41.5t-45.5 113.5zM371 606l321 6q3 78 -35.5 128.5t-109.5 50.5q-78 0 -127 -53t-49 -132zM625 1298q-1 72 41.5 117 t105.5 45t111.5 -46.5t48.5 -106.5q0 -70 -34 -117t-107 -47q-80 0 -122 41.5t-44 113.5z" />
<glyph unicode="&#xec;" horiz-adv-x="544" d="M-35 1307q-3 1 20 46.5t51.5 91t37.5 46.5q4 2 118.5 -57.5t227.5 -119.5l112 -61l-17.5 -40t-35.5 -67t-41 -48q-4 -1 -120.5 50.5t-234 105t-118.5 53.5zM108 499.5q-7 491.5 1 510.5q11 13 167 10.5t164 -10.5q4 -6 -3.5 -500.5t-12.5 -505.5q-7 -9 -154 -8.5 t-151 6.5t-11 497.5z" />
<glyph unicode="&#xed;" horiz-adv-x="544" d="M12 1253l459 238q9 -1 37 -46.5t50.5 -91t19.5 -46.5q-1 0 -119 -53.5t-234.5 -105t-120.5 -50.5q-16 5 -39 44t-38 75zM108 499.5q-7 491.5 1 510.5q11 13 167 10.5t164 -10.5q4 -6 -3.5 -500.5t-12.5 -505.5q-7 -9 -154 -8.5t-151 6.5t-11 497.5z" />
<glyph unicode="&#xee;" horiz-adv-x="544" d="M-82 1249q317 216 356 232q7 -3 96.5 -60.5t175.5 -113.5l85 -56q-57 -127 -86 -139q-3 -1 -47 19.5t-108.5 54.5t-115.5 63q-258 -144 -264 -141q-13 5 -36 40.5t-40 67.5zM108 499.5q-7 491.5 1 510.5q11 13 167 10.5t164 -10.5q4 -6 -3.5 -500.5t-12.5 -505.5 q-7 -9 -154 -8.5t-151 6.5t-11 497.5z" />
<glyph unicode="&#xef;" horiz-adv-x="544" d="M-106 1298q-1 72 41.5 117t105.5 45t111.5 -46.5t48.5 -106.5q0 -70 -34.5 -117t-107.5 -47q-78 0 -120 41.5t-45 113.5zM108 499.5q-7 491.5 1 510.5q11 13 167 10.5t164 -10.5q4 -6 -3.5 -500.5t-12.5 -505.5q-7 -9 -154 -8.5t-151 6.5t-11 497.5zM348 1298 q-1 72 42 117t106 45t111 -46.5t48 -106.5q0 -70 -34 -117t-107 -47q-80 0 -122 41.5t-44 113.5z" />
<glyph unicode="&#xf0;" horiz-adv-x="1157" d="M47 471q0 116 36.5 207t96.5 143t129 78.5t142 26.5q140 0 231 -74l6 8q-18 128 -153 232q-27 -17 -65 -40t-57.5 -35t-23.5 -16q-17 0 -45 33.5t-47 67.5t-16 37q41 28 96 67q-56 30 -107 47q13 43 114 127t130 84q79 -27 160 -84q24 15 59 37.5t53 34t19 10.5 q13 -9 33.5 -47t34.5 -72t12 -36q-37 -31 -70 -54q123 -124 200 -292t77 -375q0 -125 -30.5 -228t-81.5 -172.5t-119 -117.5t-141 -69.5t-149 -21.5q-111 0 -205 30.5t-166 90t-112.5 155t-40.5 218.5zM356 463q0 -89 52.5 -146t148.5 -57q92 0 139 60.5t47 154.5 q0 82 -49.5 142.5t-146.5 60.5q-94 0 -142.5 -62t-48.5 -153z" />
<glyph unicode="&#xf1;" horiz-adv-x="1191" d="M104 540.5q-1 216.5 2 444.5q13 19 162 27t162 -6q-6 -121 -6 -123q39 59 118 101t193 42q166 0 264.5 -121.5t98.5 -320.5q0 -109 -5.5 -310.5t-11.5 -273.5q-1 -13 -156 -15t-159 3q-3 38 -3 130.5t2.5 253t2.5 177.5q0 86 -39.5 137t-116.5 51q-80 0 -130 -51.5 t-50 -116.5q0 -558 -8 -569q-4 -6 -155.5 -3.5t-155.5 11.5q-2 4 -5 160t-4 372.5zM233 1343q34 44 88.5 75.5t120.5 31.5q40 0 84.5 -18.5t78.5 -40t77.5 -40t81.5 -18.5q31 0 60.5 14.5t40.5 24.5t38 37q12 -3 39.5 -71t30.5 -105q-3 -5 -8 -12.5t-24 -27t-41 -34.5 t-59.5 -27t-78.5 -12q-51 0 -111.5 27t-119.5 54.5t-105 27.5q-66 0 -137 -66q-11 -9 -43 119q-13 50 -13 61z" />
<glyph unicode="&#xf2;" horiz-adv-x="1144" d="M53 510q0 96 36.5 187t101.5 162.5t163.5 115t214.5 43.5q109 0 204.5 -36.5t166 -103.5t111.5 -169t41 -226q0 -100 -35.5 -190t-100.5 -160.5t-164.5 -113t-218.5 -44.5q-224 0 -372 145.5t-148 389.5zM272 1307q-3 1 20 46.5t51.5 91t37.5 46.5q4 2 119 -57.5 t228 -119.5l112 -61q-7 -16 -18 -40t-36 -67t-41 -48q-4 -1 -120.5 50.5t-234 105t-118.5 53.5zM369 485q0 -102 55.5 -161.5t132.5 -61.5q106 -3 162.5 56.5t56.5 168.5q0 113 -54 165t-136 55q-106 3 -161.5 -58t-55.5 -164z" />
<glyph unicode="&#xf3;" horiz-adv-x="1144" d="M53 510q0 96 36.5 187t101.5 162.5t163.5 115t214.5 43.5q109 0 204.5 -36.5t166 -103.5t111.5 -169t41 -226q0 -100 -35.5 -190t-100.5 -160.5t-164.5 -113t-218.5 -44.5q-224 0 -372 145.5t-148 389.5zM315 1253l459 238q9 -1 37 -46.5t50.5 -91t19.5 -46.5 q-1 0 -118.5 -53.5t-234 -105t-120.5 -50.5q-16 5 -39 44t-39 75zM369 485q0 -102 55.5 -161.5t132.5 -61.5q106 -3 162.5 56.5t56.5 168.5q0 113 -54 165t-136 55q-106 3 -161.5 -58t-55.5 -164z" />
<glyph unicode="&#xf4;" horiz-adv-x="1144" d="M53 510q0 96 36.5 187t101.5 162.5t163.5 115t214.5 43.5q109 0 204.5 -36.5t166 -103.5t111.5 -169t41 -226q0 -100 -35.5 -190t-100.5 -160.5t-164.5 -113t-218.5 -44.5q-224 0 -372 145.5t-148 389.5zM225 1249q318 216 357 232q7 -3 96 -60.5t174 -113.5l86 -56 q-57 -127 -86 -139q-3 -1 -46.5 19.5t-108 54.5t-115.5 63q-259 -144 -265 -141q-13 5 -36 40.5t-39 67.5zM369 485q0 -102 55.5 -161.5t132.5 -61.5q106 -3 162.5 56.5t56.5 168.5q0 113 -54 165t-136 55q-106 3 -161.5 -58t-55.5 -164z" />
<glyph unicode="&#xf5;" horiz-adv-x="1144" d="M53 510q0 96 36.5 187t101.5 162.5t163.5 115t214.5 43.5q109 0 204.5 -36.5t166 -103.5t111.5 -169t41 -226q0 -100 -35.5 -190t-100.5 -160.5t-164.5 -113t-218.5 -44.5q-224 0 -372 145.5t-148 389.5zM209 1343q34 44 88.5 75.5t120.5 31.5q40 0 84.5 -18.5t78 -40 t77 -40t81.5 -18.5q31 0 61 14.5t41.5 25t37.5 36.5q12 -3 39 -70.5t30 -105.5q-3 -5 -8 -12.5t-24 -27t-41 -34.5t-59.5 -27t-78.5 -12q-51 0 -111.5 27t-119.5 54.5t-105 27.5q-66 0 -137 -66q-11 -9 -43 119q-12 50 -12 61zM369 485q0 -102 55.5 -161.5t132.5 -61.5 q106 -3 162.5 56.5t56.5 168.5q0 113 -54 165t-136 55q-106 3 -161.5 -58t-55.5 -164z" />
<glyph unicode="&#xf6;" horiz-adv-x="1144" d="M53 510q0 96 36.5 187t101.5 162.5t163.5 115t214.5 43.5q109 0 204.5 -36.5t166 -103.5t111.5 -169t41 -226q0 -100 -35.5 -190t-100.5 -160.5t-164.5 -113t-218.5 -44.5q-224 0 -372 145.5t-148 389.5zM203 1298q-1 72 41.5 117t105.5 45t111.5 -46.5t48.5 -106.5 q0 -70 -34 -117t-107 -47q-78 0 -120.5 41.5t-45.5 113.5zM369 485q0 -102 55.5 -161.5t132.5 -61.5q106 -3 162.5 56.5t56.5 168.5q0 113 -54 165t-136 55q-106 3 -161.5 -58t-55.5 -164zM657 1298q-1 72 42 117t106 45t111.5 -46.5t48.5 -106.5q0 -70 -34.5 -117 t-107.5 -47q-80 0 -122 41.5t-44 113.5z" />
<glyph unicode="&#xf7;" horiz-adv-x="985" d="M70 686l841 8q2 -166 -8 -174l-813 -10q-5 4 -10.5 48t-8.5 86t-1 42zM334 199q0 86 36.5 132t133.5 46q81 0 129.5 -51t48.5 -140q0 -64 -50 -107.5t-128 -43.5q-77 0 -123.5 43t-46.5 121zM334 985q0 86 36.5 132t133.5 46q78 0 127 -50.5t49 -137.5q0 -65 -50 -109.5 t-126 -44.5t-123 43.5t-47 120.5z" />
<glyph unicode="&#xf8;" horiz-adv-x="1144" d="M53 510q0 97 36 187.5t100.5 162t163.5 115t216 43.5q162 0 287 -78q43 51 105 117l83 -56q23 -18 23 -22q0 -1 -11 -14t-38 -45t-55 -68q129 -146 129 -369q0 -99 -36 -190t-101 -161t-164 -112.5t-218 -44.5q-157 0 -288 78q-26 -30 -48.5 -54.5t-35 -36.5t-13.5 -11 q-11 7 -24.5 16.5t-34 25t-32 30t-7.5 22.5q35 41 86 100q-123 142 -123 365zM354 485q0 -55 21 -106q42 48 278 328q-28 14 -67 14q-112 4 -172 -60.5t-60 -175.5zM471 268q34 -22 84 -22q113 -1 173 62t60 179q0 77 -26 127z" />
<glyph unicode="&#xf9;" horiz-adv-x="1179" d="M90 408q0 161 27 593q3 13 158 15t159 -4q2 -10 -2 -134t-9 -264t-5 -172q0 -88 38.5 -136t116.5 -48q80 0 126.5 52t48.5 124q0 81 5.5 324t10.5 248q4 6 154.5 3t156.5 -12q6 -23 -12 -993q-15 -19 -152 -17t-153 17q1 18 1 45v46.5t1 25.5q-41 -60 -119.5 -106 t-183.5 -46q-367 0 -367 439zM285 1307q-3 1 20 46.5t51 91t37 46.5q4 2 119 -57.5t228 -119.5l112 -61l-17.5 -40t-35.5 -67t-41 -48q-4 -1 -120.5 50.5t-234 105t-118.5 53.5z" />
<glyph unicode="&#xfa;" horiz-adv-x="1179" d="M90 408q0 161 27 593q3 13 158 15t159 -4q2 -10 -2 -134t-9 -264t-5 -172q0 -88 38.5 -136t116.5 -48q80 0 126.5 52t48.5 124q0 81 5.5 324t10.5 248q4 6 154.5 3t156.5 -12q6 -23 -12 -993q-15 -19 -152 -17t-153 17q1 18 1 45v46.5t1 25.5q-41 -60 -119.5 -106 t-183.5 -46q-367 0 -367 439zM354 1253l459 238q9 -1 37 -46.5t50.5 -91t19.5 -46.5q-1 0 -119 -53.5t-234.5 -105t-120.5 -50.5q-16 5 -39 44t-38 75z" />
<glyph unicode="&#xfb;" horiz-adv-x="1179" d="M90 408q0 161 27 593q3 13 158 15t159 -4q2 -10 -2 -134t-9 -264t-5 -172q0 -88 38.5 -136t116.5 -48q80 0 126.5 52t48.5 124q0 81 5.5 324t10.5 248q4 6 154.5 3t156.5 -12q6 -23 -12 -993q-15 -19 -152 -17t-153 17q1 18 1 45v46.5t1 25.5q-41 -60 -119.5 -106 t-183.5 -46q-367 0 -367 439zM242 1249q317 216 356 232q7 -3 96 -60.5t174 -113.5l86 -56q-57 -127 -86 -139q-3 -1 -46.5 19.5t-108 54.5t-115.5 63q-258 -144 -264 -141q-13 5 -36 40.5t-40 67.5z" />
<glyph unicode="&#xfc;" horiz-adv-x="1179" d="M90 408q0 161 27 593q3 13 158 15t159 -4q2 -10 -2 -134t-9 -264t-5 -172q0 -88 38.5 -136t116.5 -48q80 0 126.5 52t48.5 124q0 81 5.5 324t10.5 248q4 6 154.5 3t156.5 -12q6 -23 -12 -993q-15 -19 -152 -17t-153 17q1 18 1 45v46.5t1 25.5q-41 -60 -119.5 -106 t-183.5 -46q-367 0 -367 439zM219 1298q-1 72 42 117t106 45t111 -46.5t48 -106.5q0 -70 -34 -117t-107 -47q-78 0 -120.5 41.5t-45.5 113.5zM674 1298q-1 72 41.5 117t105.5 45t111.5 -46.5t48.5 -106.5q0 -70 -34 -117t-107 -47q-80 0 -122 41.5t-44 113.5z" />
<glyph unicode="&#xfd;" horiz-adv-x="1091" d="M27 971q0 11 140 36t167 25q12 0 65 -144.5t101 -289.5l47 -145q223 579 233 581q11 2 160.5 -30.5t149.5 -40.5q-26 -97 -312.5 -746.5t-310.5 -677.5q-54 -3 -173 48t-136 73q1 4 46.5 102.5t95.5 209.5t60 141q-58 115 -196 467.5t-137 390.5zM354 1253l459 238 q9 -1 37 -46.5t50.5 -91t19.5 -46.5q-1 0 -119 -53.5t-234.5 -105t-120.5 -50.5q-16 5 -39 44t-38 75z" />
<glyph unicode="&#xfe;" horiz-adv-x="1224" d="M95.5 1200q-1.5 307 17.5 328q22 22 105.5 23.5t157 -8t79.5 -15.5q7 -7 12.5 -291.5t3.5 -331.5q18 32 99.5 74.5t183.5 42.5q81 -1 154.5 -32.5t131.5 -91.5t92.5 -155.5t34.5 -214.5q0 -137 -36 -244t-97.5 -172t-139 -98.5t-165.5 -33.5q-83 0 -155 31t-89 55l1 -56 q0 -55 0.5 -126.5t0.5 -146t-0.5 -127t-1.5 -56.5q-24 -6 -177 -8.5t-158 3.5q-3 11 -16.5 312.5t-25 666.5t-13 672zM446 508q0 -96 53.5 -158.5t145.5 -62.5q98 0 154.5 57.5t56.5 161.5q0 98 -60 159.5t-151 61.5q-93 0 -146 -58.5t-53 -160.5z" />
<glyph unicode="&#xff;" horiz-adv-x="1091" d="M27 971q0 11 140 36t167 25q12 0 65 -144.5t101 -289.5l47 -145q223 579 233 581q11 2 160.5 -30.5t149.5 -40.5q-26 -97 -312.5 -746.5t-310.5 -677.5q-54 -3 -173 48t-136 73q1 4 46.5 102.5t95.5 209.5t60 141q-58 115 -196 467.5t-137 390.5zM176 1298q-1 72 42 117 t106 45t111 -46.5t48 -106.5q0 -70 -34 -117t-107 -47q-78 0 -120.5 41.5t-45.5 113.5zM631 1298q-1 72 41.5 117t105.5 45t111.5 -46.5t48.5 -106.5q0 -70 -34 -117t-107 -47q-80 0 -122 41.5t-44 113.5z" />
<glyph unicode="&#x152;" horiz-adv-x="2242" d="M63 727q0 113 27.5 219t85.5 199.5t139.5 163.5t197.5 110.5t253 40.5q267 0 428 -155l4 125q139 9 547 11.5t424 -5.5q11 -26 11.5 -144.5t-7.5 -167.5q-44 -5 -275.5 -5.5t-357.5 3.5l4 -250q149 2 308 -1.5t169 -10.5q6 -5 8.5 -36t2 -73.5t-2 -82.5t-3.5 -72l-1 -31 q0 -7 -167.5 -8t-315.5 4v-262q483 10 604 2q10 -53 9 -166t-9 -141q8 -5 -197.5 -7.5t-447 0t-317.5 9.5q-2 23 -2 113q-158 -148 -410 -148q-215 0 -376.5 96t-247 269.5t-85.5 400.5zM442 707q0 -176 88.5 -293t233.5 -117q160 0 240.5 113t80.5 311q0 199 -85.5 302 t-227.5 103q-156 0 -243 -113t-87 -306z" />
<glyph unicode="&#x153;" horiz-adv-x="1837" d="M53 510q0 96 36.5 187t101.5 162.5t163.5 115t214.5 43.5q126 0 230 -47t174 -137q137 186 383 186q98 0 181.5 -35.5t138.5 -95.5t85.5 -138.5t30.5 -164.5q0 -96 -18 -158q-69 -9 -290 -11.5t-306 1.5q0 -83 57.5 -129.5t163.5 -46.5q123 0 237 71q16 -16 61 -107.5 t46 -113.5q-48 -44 -148 -80.5t-213 -36.5q-277 0 -415 179q-140 -173 -394 -179q-224 0 -372 145.5t-148 389.5zM369 485q0 -102 55.5 -161.5t132.5 -61.5q106 -3 162.5 56.5t56.5 168.5q0 113 -54 165t-136 55q-106 3 -161.5 -58t-55.5 -164zM1178 606l321 6 q3 78 -36.5 128.5t-110.5 50.5q-77 0 -125.5 -53t-48.5 -132z" />
<glyph unicode="&#x178;" horiz-adv-x="1288" d="M23 1346q1 18 156.5 65.5t176.5 40.5q5 -3 60 -105t123.5 -237t101.5 -211h12q18 33 63.5 117.5t80.5 149t74 135.5t62.5 110.5t27.5 40.5q22 2 174 -42.5t153 -61.5q0 -8 -40.5 -80.5t-107 -187t-124 -211.5t-121 -204.5t-68.5 -115.5q4 -472 -6 -549 q-5 -17 -97.5 -20.5t-182.5 3.5t-90 15q-2 27 -3 70t0 104.5t2 113.5t2.5 135t2.5 132q-7 13 -67.5 120t-114.5 204t-115.5 208.5t-98.5 182.5t-36 78zM270 1724q-1 72 42 117t106 45t111.5 -46.5t48.5 -106.5q0 -70 -34.5 -117t-107.5 -47q-78 0 -120.5 41.5t-45.5 113.5z M725 1724q-1 72 41.5 117t105.5 45t111.5 -46.5t48.5 -106.5q0 -70 -34 -117t-107 -47q-80 0 -122 41.5t-44 113.5z" />
<glyph unicode="&#x2c6;" horiz-adv-x="1024" d="M156 1249q317 216 356 232q7 -3 96 -60.5t174 -113.5l86 -56q-57 -127 -86 -139q-3 -1 -46.5 19.5t-108 54.5t-115.5 63q-258 -144 -264 -141q-13 5 -36 40.5t-40 67.5z" />
<glyph unicode="&#x2dc;" horiz-adv-x="1024" d="M141 1343q34 44 88.5 75.5t120.5 31.5q40 0 84.5 -18.5t78.5 -40t77.5 -40t81.5 -18.5q31 0 60.5 14.5t40.5 24.5t38 37q12 -3 39.5 -71t30.5 -105q-3 -5 -8 -12.5t-24 -27t-41 -34.5t-59.5 -27t-78.5 -12q-51 0 -111.5 27t-119.5 54.5t-105 27.5q-66 0 -137 -66 q-11 -9 -43 119q-13 50 -13 61z" />
<glyph unicode="&#x2000;" horiz-adv-x="958" />
<glyph unicode="&#x2001;" horiz-adv-x="1917" />
<glyph unicode="&#x2002;" horiz-adv-x="958" />
<glyph unicode="&#x2003;" horiz-adv-x="1917" />
<glyph unicode="&#x2004;" horiz-adv-x="639" />
<glyph unicode="&#x2005;" horiz-adv-x="479" />
<glyph unicode="&#x2006;" horiz-adv-x="319" />
<glyph unicode="&#x2007;" horiz-adv-x="319" />
<glyph unicode="&#x2008;" horiz-adv-x="239" />
<glyph unicode="&#x2009;" horiz-adv-x="383" />
<glyph unicode="&#x200a;" horiz-adv-x="106" />
<glyph unicode="&#x2010;" horiz-adv-x="815" d="M98 639.5q1 48.5 4 58.5q8 4 305 13.5t302 1.5q6 -29 5 -84t-6 -109t-8 -55l-41 -1q-41 -1 -100.5 -2.5t-131.5 -3.5t-135 -2.5t-109.5 -0.5t-55.5 2q-14 11 -22 72.5t-7 110z" />
<glyph unicode="&#x2011;" horiz-adv-x="815" d="M98 639.5q1 48.5 4 58.5q8 4 305 13.5t302 1.5q6 -29 5 -84t-6 -109t-8 -55l-41 -1q-41 -1 -100.5 -2.5t-131.5 -3.5t-135 -2.5t-109.5 -0.5t-55.5 2q-14 11 -22 72.5t-7 110z" />
<glyph unicode="&#x2012;" horiz-adv-x="815" d="M98 639.5q1 48.5 4 58.5q8 4 305 13.5t302 1.5q6 -29 5 -84t-6 -109t-8 -55l-41 -1q-41 -1 -100.5 -2.5t-131.5 -3.5t-135 -2.5t-109.5 -0.5t-55.5 2q-14 11 -22 72.5t-7 110z" />
<glyph unicode="&#x2013;" horiz-adv-x="1056" d="M102.5 562.5q1.5 120.5 8.5 123.5q8 4 423 13t418 1q3 -11 -2.5 -125t-9.5 -114q-1 0 -411 -9.5t-418 -9.5q-10 0 -8.5 120.5z" />
<glyph unicode="&#x2014;" horiz-adv-x="1482" d="M102.5 585.5q1.5 112.5 8.5 114.5q8 4 638 13.5t633 1.5q3 -11 -2.5 -116t-9.5 -105q-1 0 -626 -10.5t-633 -10.5q-10 0 -8.5 112.5z" />
<glyph unicode="&#x2018;" horiz-adv-x="552" d="M55 864q0 116 71.5 287t149.5 301q3 4 42 -5.5t84 -30.5t59 -42q2 -3 -25 -56.5t-67 -132t-56 -112.5q73 -8 126 -64t53 -141q0 -107 -63.5 -165t-180.5 -52q-82 5 -137.5 55.5t-55.5 157.5z" />
<glyph unicode="&#x2019;" horiz-adv-x="546" d="M63 1233q0 107 63 165t179 52q82 -5 138.5 -55.5t56.5 -157.5q0 -115 -71 -283.5t-150 -304.5q-3 -4 -42 5.5t-84 30.5t-59 42q-2 3 24 56t66.5 133t55.5 112q-72 8 -124.5 64t-52.5 141z" />
<glyph unicode="&#x201a;" horiz-adv-x="571" d="M66 184q0 107 62.5 165t178.5 52q82 -5 138.5 -55.5t56.5 -157.5q0 -115 -71 -283t-150 -304q-3 -4 -42 5.5t-84 30t-59 41.5q-2 3 24 56t66.5 133.5t55.5 112.5q-72 8 -124 63.5t-52 140.5z" />
<glyph unicode="&#x201c;" horiz-adv-x="1019" d="M53 905q0 107 66 265t139 282q3 4 39.5 -5t78 -28t54.5 -39q2 -3 -22 -51.5t-63 -124.5t-52 -104q68 -8 117 -59.5t49 -131.5q0 -99 -59.5 -152.5t-168.5 -47.5q-47 2 -85 20t-65.5 63t-27.5 113zM555 905q0 107 66 265t139 282q3 4 39.5 -5t78 -28t54.5 -39 q2 -3 -22 -51.5t-63 -124.5t-52 -104q68 -8 117 -59.5t49 -131.5q0 -99 -59.5 -152.5t-168.5 -47.5q-47 2 -85 20t-65.5 63t-27.5 113z" />
<glyph unicode="&#x201d;" horiz-adv-x="1017" d="M63 1251q0 99 59 153t165 50q35 -2 65.5 -13.5t57 -33.5t42 -61t15.5 -91q0 -106 -64.5 -258.5t-140.5 -285.5q-4 -4 -39.5 5t-77 28.5t-53.5 39.5q-2 2 22 51.5t60 122.5t51 105q-65 6 -113.5 58t-48.5 130zM567 1253q0 99 59 153t165 50q35 -2 65.5 -13.5t57 -33.5 t42 -61t15.5 -91q0 -106 -64.5 -258.5t-140.5 -285.5q-4 -4 -39.5 5t-77 28.5t-53.5 39.5q-2 2 22 51.5t60 122.5t51 105q-65 6 -113.5 58t-48.5 130z" />
<glyph unicode="&#x201e;" horiz-adv-x="1038" d="M63 180q0 99 59 153t165 50q35 -2 65.5 -13.5t57 -33.5t42 -61t15.5 -91q0 -106 -64.5 -258.5t-140.5 -285.5q-4 -4 -39.5 5t-77 28.5t-53.5 39.5q-2 2 22 51.5t60 122.5t51 105q-65 6 -113.5 58t-48.5 130zM567 178q0 99 59 153t165 50q35 -2 65.5 -13.5t57 -33.5 t42 -61t15.5 -91q0 -106 -64.5 -258.5t-140.5 -285.5q-4 -4 -39.5 5t-77 28.5t-53.5 39.5q-2 2 22 51.5t60 122.5t51 105q-65 6 -113.5 58t-48.5 130z" />
<glyph unicode="&#x2022;" horiz-adv-x="737" d="M117 606q0 124 72.5 183t187.5 59q107 0 175.5 -65.5t68.5 -178.5q0 -106 -61.5 -180t-182.5 -74q-122 0 -191 62t-69 194z" />
<glyph unicode="&#x2026;" horiz-adv-x="1617" d="M63 164q0 96 58 149t162 47q74 -3 124 -49t50 -143q0 -94 -58 -146t-163 -51q-67 3 -120 57.5t-53 135.5zM610 164q0 97 57.5 149.5t161.5 46.5q74 -3 124.5 -49t50.5 -143q0 -94 -58.5 -146t-163.5 -51q-67 3 -119.5 57.5t-52.5 135.5zM1155 164q0 97 57.5 149.5 t161.5 46.5q74 -3 124 -49t50 -143q0 -94 -58 -146t-163 -51q-67 3 -119.5 57.5t-52.5 135.5z" />
<glyph unicode="&#x202f;" horiz-adv-x="383" />
<glyph unicode="&#x2039;" horiz-adv-x="589" d="M53 616q0 9 169 243.5t177 240.5q6 4 56.5 -33.5t50.5 -42.5q0 -2 -107 -196.5t-106 -198.5q1 -3 113 -214.5t112 -217.5q0 -8 -60.5 -58.5t-64.5 -48.5t-172 259.5t-168 266.5z" />
<glyph unicode="&#x203a;" horiz-adv-x="589" d="M70 995q0 7 61 57t64 48q4 -2 172 -248.5t168 -255.5t-168.5 -251.5t-176.5 -248.5q-6 -4 -57 33.5t-51 42.5q0 2 107 209t106 211q-1 3 -113 200t-112 203z" />
<glyph unicode="&#x205f;" horiz-adv-x="479" />
<glyph unicode="&#x20ac;" horiz-adv-x="1366" d="M60.5 829.5q6.5 70.5 11.5 73.5q22 0 69 -1t70 -1q47 249 222.5 402t436.5 153q145 0 257.5 -40.5t164.5 -92.5q0 -35 -47 -155t-78 -150q-147 100 -293 100q-100 0 -180 -61t-119 -162l365 -4q0 -6 -5.5 -64t-6.5 -61q-135 2 -387 0q-2 -14 -2 -49q0 -49 6 -96 q67 0 203 1t204 1q3 -1 3.5 -60t-1.5 -63q-2 -2 -368 -11q41 -89 112.5 -134.5t157.5 -45.5q43 0 85 10.5t69 21t61 32.5t43.5 29t32.5 26q28 -22 76.5 -112.5t72.5 -153.5q-61 -79 -193 -138t-280 -59q-244 0 -396 138.5t-206 373.5q-41 0 -131 -4q-7 3 -10 72.5t2 72.5 h117q-4 74 -4 84q0 48 2 56q-89 0 -136 -2q-7 3 -0.5 73.5z" />
<glyph unicode="&#x2122;" horiz-adv-x="1613" d="M97.5 1371.5q-0.5 60.5 4.5 64.5q9 5 267.5 9.5t294.5 0.5q7 -3 10 -40.5t1.5 -73.5t-5.5 -36q-22 -4 -183 -8q0 -472 -2 -491q-5 -5 -99.5 -7.5t-94.5 3.5q-9 110 -4 497h-183q-6 21 -6.5 81.5zM717 807q3 37 52 315.5t58 307.5q4 9 83 10.5t96 -2.5q12 -20 54 -168.5 t64 -247.5h6q99 389 121 408q8 6 89.5 7.5t95.5 -1.5q5 -3 51 -304.5t45 -326.5q-5 -7 -49.5 -14.5t-80.5 -9t-42 0.5q-2 9 -47 389h-2q-96 -345 -109 -380q-12 -3 -80.5 -2.5t-72.5 4.5q-20 50 -101 381h-4q-8 -50 -28 -205.5t-25 -182.5q-26 -2 -100 6.5t-74 14.5z" />
<glyph unicode="&#x25fc;" horiz-adv-x="1034" d="M0 0v1034h1034v-1034h-1034z" />
</font>
</defs>
</svg>
